<mxfile host="Electron" modified="2023-12-07T14:46:16.322Z" agent="Mozilla/5.0 (Windows NT 10.0; Win64; x64) AppleWebKit/537.36 (KHTML, like Gecko) draw.io/22.0.3 Chrome/114.0.5735.289 Electron/25.8.4 Safari/537.36" etag="GrTaXBtK356jY-7ec0Nn" version="22.0.3" type="device" pages="2">
  <diagram name="Страница — 1" id="_hvzk2f6sCjEzoZsOK16">
    <mxGraphModel dx="1985" dy="2137" grid="1" gridSize="10" guides="1" tooltips="1" connect="1" arrows="1" fold="1" page="1" pageScale="1" pageWidth="827" pageHeight="1169" math="0" shadow="0">
      <root>
        <mxCell id="0" />
        <mxCell id="1" parent="0" />
        <mxCell id="zWcnxbrcs6CcHFxjBdJH-1" style="edgeStyle=orthogonalEdgeStyle;rounded=0;orthogonalLoop=1;jettySize=auto;html=1;exitX=0;exitY=1;exitDx=0;exitDy=0;entryX=0.75;entryY=0;entryDx=0;entryDy=0;" parent="1" source="HJofYxl7nrpDS_eS0d2l-11" target="HJofYxl7nrpDS_eS0d2l-2" edge="1">
          <mxGeometry relative="1" as="geometry">
            <Array as="points">
              <mxPoint x="845" y="-450" />
            </Array>
          </mxGeometry>
        </mxCell>
        <mxCell id="HJofYxl7nrpDS_eS0d2l-11" value="" style="rounded=0;whiteSpace=wrap;html=1;" parent="1" vertex="1">
          <mxGeometry x="1140" y="-600" width="650" height="150" as="geometry" />
        </mxCell>
        <mxCell id="HJofYxl7nrpDS_eS0d2l-7" value="" style="rounded=0;whiteSpace=wrap;html=1;" parent="1" vertex="1">
          <mxGeometry x="2260" y="-450" width="370" height="280" as="geometry" />
        </mxCell>
        <mxCell id="HJofYxl7nrpDS_eS0d2l-5" value="" style="rounded=0;whiteSpace=wrap;html=1;" parent="1" vertex="1">
          <mxGeometry x="1970" y="-325" width="270" height="315" as="geometry" />
        </mxCell>
        <mxCell id="HJofYxl7nrpDS_eS0d2l-3" value="" style="rounded=0;whiteSpace=wrap;html=1;" parent="1" vertex="1">
          <mxGeometry x="970" y="-370" width="710" height="480" as="geometry" />
        </mxCell>
        <mxCell id="HJofYxl7nrpDS_eS0d2l-1" value="" style="rounded=0;whiteSpace=wrap;html=1;" parent="1" vertex="1">
          <mxGeometry x="800" y="-310" width="140" height="350" as="geometry" />
        </mxCell>
        <mxCell id="H1dTvE5KnR3uwUeOF3dF-1" value="" style="rounded=0;whiteSpace=wrap;html=1;" parent="1" vertex="1">
          <mxGeometry x="570" y="-1160" width="920" height="530" as="geometry" />
        </mxCell>
        <mxCell id="H1dTvE5KnR3uwUeOF3dF-2" value="&lt;div&gt;Информация об эксплуатации приложения&lt;br&gt;&lt;/div&gt;" style="rounded=0;whiteSpace=wrap;html=1;align=center;verticalAlign=bottom;" parent="1" vertex="1">
          <mxGeometry x="610" y="-870" width="160" height="80" as="geometry" />
        </mxCell>
        <mxCell id="H1dTvE5KnR3uwUeOF3dF-3" value="" style="rounded=0;whiteSpace=wrap;html=1;" parent="1" vertex="1">
          <mxGeometry x="610" y="-1020" width="160" height="120" as="geometry" />
        </mxCell>
        <mxCell id="H1dTvE5KnR3uwUeOF3dF-4" value="" style="rounded=0;whiteSpace=wrap;html=1;" parent="1" vertex="1">
          <mxGeometry x="810" y="-1080" width="640" height="430" as="geometry" />
        </mxCell>
        <mxCell id="H1dTvE5KnR3uwUeOF3dF-5" value="Информация" style="html=1;whiteSpace=wrap;" parent="1" vertex="1">
          <mxGeometry x="570" y="-1160" width="920" height="30" as="geometry" />
        </mxCell>
        <mxCell id="H1dTvE5KnR3uwUeOF3dF-6" value="О приложении" style="html=1;whiteSpace=wrap;" parent="1" vertex="1">
          <mxGeometry x="610" y="-1020" width="160" height="40" as="geometry" />
        </mxCell>
        <mxCell id="H1dTvE5KnR3uwUeOF3dF-7" value="О разработчике" style="html=1;whiteSpace=wrap;" parent="1" vertex="1">
          <mxGeometry x="810" y="-1080" width="640" height="50" as="geometry" />
        </mxCell>
        <mxCell id="H1dTvE5KnR3uwUeOF3dF-8" value="Инструкция" style="html=1;whiteSpace=wrap;" parent="1" vertex="1">
          <mxGeometry x="610" y="-870" width="160" height="40" as="geometry" />
        </mxCell>
        <mxCell id="H1dTvE5KnR3uwUeOF3dF-9" value="" style="rounded=0;whiteSpace=wrap;html=1;" parent="1" vertex="1">
          <mxGeometry x="835" y="-1020" width="325" height="340" as="geometry" />
        </mxCell>
        <mxCell id="H1dTvE5KnR3uwUeOF3dF-10" value="Лицензирование" style="rounded=0;whiteSpace=wrap;html=1;" parent="1" vertex="1">
          <mxGeometry x="835" y="-1020" width="325" height="30" as="geometry" />
        </mxCell>
        <mxCell id="H1dTvE5KnR3uwUeOF3dF-11" value="Платеж" style="swimlane;fontStyle=0;childLayout=stackLayout;horizontal=1;startSize=30;horizontalStack=0;resizeParent=1;resizeParentMax=0;resizeLast=0;collapsible=1;marginBottom=0;whiteSpace=wrap;html=1;" parent="1" vertex="1">
          <mxGeometry x="844" y="-975" width="96" height="150" as="geometry">
            <mxRectangle x="274" y="705" width="120" height="30" as="alternateBounds" />
          </mxGeometry>
        </mxCell>
        <mxCell id="H1dTvE5KnR3uwUeOF3dF-12" value="ФИО" style="text;strokeColor=none;fillColor=none;align=left;verticalAlign=middle;spacingLeft=4;spacingRight=4;overflow=hidden;points=[[0,0.5],[1,0.5]];portConstraint=eastwest;rotatable=0;whiteSpace=wrap;html=1;" parent="H1dTvE5KnR3uwUeOF3dF-11" vertex="1">
          <mxGeometry y="30" width="96" height="30" as="geometry" />
        </mxCell>
        <mxCell id="H1dTvE5KnR3uwUeOF3dF-13" style="edgeStyle=orthogonalEdgeStyle;rounded=0;orthogonalLoop=1;jettySize=auto;html=1;exitX=1;exitY=0.5;exitDx=0;exitDy=0;entryX=1;entryY=0.5;entryDx=0;entryDy=0;" parent="H1dTvE5KnR3uwUeOF3dF-11" source="H1dTvE5KnR3uwUeOF3dF-14" target="H1dTvE5KnR3uwUeOF3dF-11" edge="1">
          <mxGeometry relative="1" as="geometry" />
        </mxCell>
        <mxCell id="H1dTvE5KnR3uwUeOF3dF-14" value="Сумма" style="text;strokeColor=none;fillColor=none;align=left;verticalAlign=middle;spacingLeft=4;spacingRight=4;overflow=hidden;points=[[0,0.5],[1,0.5]];portConstraint=eastwest;rotatable=0;whiteSpace=wrap;html=1;" parent="H1dTvE5KnR3uwUeOF3dF-11" vertex="1">
          <mxGeometry y="60" width="96" height="30" as="geometry" />
        </mxCell>
        <mxCell id="H1dTvE5KnR3uwUeOF3dF-15" value="Номер карты" style="text;strokeColor=none;fillColor=none;align=left;verticalAlign=middle;spacingLeft=4;spacingRight=4;overflow=hidden;points=[[0,0.5],[1,0.5]];portConstraint=eastwest;rotatable=0;whiteSpace=wrap;html=1;" parent="H1dTvE5KnR3uwUeOF3dF-11" vertex="1">
          <mxGeometry y="90" width="96" height="30" as="geometry" />
        </mxCell>
        <mxCell id="H1dTvE5KnR3uwUeOF3dF-16" value="Комментарий" style="text;strokeColor=none;fillColor=none;align=left;verticalAlign=middle;spacingLeft=4;spacingRight=4;overflow=hidden;points=[[0,0.5],[1,0.5]];portConstraint=eastwest;rotatable=0;whiteSpace=wrap;html=1;" parent="H1dTvE5KnR3uwUeOF3dF-11" vertex="1">
          <mxGeometry y="120" width="96" height="30" as="geometry" />
        </mxCell>
        <mxCell id="H1dTvE5KnR3uwUeOF3dF-17" style="edgeStyle=orthogonalEdgeStyle;rounded=0;orthogonalLoop=1;jettySize=auto;html=1;exitX=0.5;exitY=1;exitDx=0;exitDy=0;entryX=0.5;entryY=0;entryDx=0;entryDy=0;" parent="1" source="H1dTvE5KnR3uwUeOF3dF-18" target="H1dTvE5KnR3uwUeOF3dF-25" edge="1">
          <mxGeometry relative="1" as="geometry" />
        </mxCell>
        <mxCell id="H1dTvE5KnR3uwUeOF3dF-18" value="Отправлен" style="rounded=0;whiteSpace=wrap;html=1;" parent="1" vertex="1">
          <mxGeometry x="1010" y="-805" width="120" height="40" as="geometry" />
        </mxCell>
        <mxCell id="H1dTvE5KnR3uwUeOF3dF-19" style="edgeStyle=orthogonalEdgeStyle;rounded=0;orthogonalLoop=1;jettySize=auto;html=1;exitX=0.5;exitY=0;exitDx=0;exitDy=0;entryX=0.5;entryY=1;entryDx=0;entryDy=0;" parent="1" source="H1dTvE5KnR3uwUeOF3dF-20" target="H1dTvE5KnR3uwUeOF3dF-24" edge="1">
          <mxGeometry relative="1" as="geometry" />
        </mxCell>
        <mxCell id="H1dTvE5KnR3uwUeOF3dF-20" value="Не отправлен" style="rounded=0;whiteSpace=wrap;html=1;" parent="1" vertex="1">
          <mxGeometry x="1010" y="-865" width="120" height="40" as="geometry" />
        </mxCell>
        <mxCell id="H1dTvE5KnR3uwUeOF3dF-21" style="edgeStyle=orthogonalEdgeStyle;rounded=0;orthogonalLoop=1;jettySize=auto;html=1;exitX=1;exitY=0.5;exitDx=0;exitDy=0;entryX=0;entryY=0.5;entryDx=0;entryDy=0;" parent="1" source="H1dTvE5KnR3uwUeOF3dF-14" target="H1dTvE5KnR3uwUeOF3dF-18" edge="1">
          <mxGeometry relative="1" as="geometry">
            <Array as="points">
              <mxPoint x="960" y="-900" />
              <mxPoint x="960" y="-785" />
            </Array>
          </mxGeometry>
        </mxCell>
        <mxCell id="H1dTvE5KnR3uwUeOF3dF-22" style="edgeStyle=orthogonalEdgeStyle;rounded=0;orthogonalLoop=1;jettySize=auto;html=1;exitX=1;exitY=0.5;exitDx=0;exitDy=0;entryX=0.25;entryY=0;entryDx=0;entryDy=0;" parent="1" source="H1dTvE5KnR3uwUeOF3dF-11" target="H1dTvE5KnR3uwUeOF3dF-20" edge="1">
          <mxGeometry relative="1" as="geometry" />
        </mxCell>
        <mxCell id="H1dTvE5KnR3uwUeOF3dF-23" style="edgeStyle=orthogonalEdgeStyle;rounded=0;orthogonalLoop=1;jettySize=auto;html=1;exitX=0;exitY=0.5;exitDx=0;exitDy=0;entryX=0.992;entryY=0.111;entryDx=0;entryDy=0;entryPerimeter=0;" parent="1" source="H1dTvE5KnR3uwUeOF3dF-24" target="H1dTvE5KnR3uwUeOF3dF-11" edge="1">
          <mxGeometry relative="1" as="geometry">
            <Array as="points">
              <mxPoint x="1010" y="-958" />
            </Array>
          </mxGeometry>
        </mxCell>
        <mxCell id="H1dTvE5KnR3uwUeOF3dF-24" value="Ошибка" style="rounded=0;whiteSpace=wrap;html=1;" parent="1" vertex="1">
          <mxGeometry x="1010" y="-975" width="120" height="30" as="geometry" />
        </mxCell>
        <mxCell id="H1dTvE5KnR3uwUeOF3dF-25" value="Отправка ключа" style="rounded=0;whiteSpace=wrap;html=1;" parent="1" vertex="1">
          <mxGeometry x="1010" y="-740" width="120" height="40" as="geometry" />
        </mxCell>
        <mxCell id="H1dTvE5KnR3uwUeOF3dF-26" value="&lt;ol&gt;&lt;li&gt;Имя&lt;/li&gt;&lt;li&gt;Информация краткая&lt;/li&gt;&lt;li&gt;Почта для обратной связи&lt;/li&gt;&lt;li&gt;Лицензирование&lt;/li&gt;&lt;/ol&gt;" style="rounded=0;whiteSpace=wrap;html=1;verticalAlign=bottom;" parent="1" vertex="1">
          <mxGeometry x="1260" y="-920" width="150" height="150" as="geometry" />
        </mxCell>
        <mxCell id="H1dTvE5KnR3uwUeOF3dF-27" value="О разработчике_инфо" style="rounded=0;whiteSpace=wrap;html=1;" parent="1" vertex="1">
          <mxGeometry x="1260" y="-920" width="150" height="40" as="geometry" />
        </mxCell>
        <mxCell id="H1dTvE5KnR3uwUeOF3dF-28" value="Краткая информация о приложении" style="text;html=1;strokeColor=none;fillColor=none;align=center;verticalAlign=middle;whiteSpace=wrap;rounded=0;" parent="1" vertex="1">
          <mxGeometry x="610" y="-980" width="160" height="80" as="geometry" />
        </mxCell>
        <mxCell id="H1dTvE5KnR3uwUeOF3dF-29" style="edgeStyle=orthogonalEdgeStyle;rounded=0;orthogonalLoop=1;jettySize=auto;html=1;exitX=0;exitY=0.25;exitDx=0;exitDy=0;entryX=1.003;entryY=0.403;entryDx=0;entryDy=0;entryPerimeter=0;" parent="1" source="H1dTvE5KnR3uwUeOF3dF-26" target="H1dTvE5KnR3uwUeOF3dF-9" edge="1">
          <mxGeometry relative="1" as="geometry" />
        </mxCell>
        <mxCell id="H1dTvE5KnR3uwUeOF3dF-49" style="edgeStyle=orthogonalEdgeStyle;rounded=0;orthogonalLoop=1;jettySize=auto;html=1;entryX=0;entryY=0.5;entryDx=0;entryDy=0;" parent="1" source="H1dTvE5KnR3uwUeOF3dF-30" target="H1dTvE5KnR3uwUeOF3dF-43" edge="1">
          <mxGeometry relative="1" as="geometry" />
        </mxCell>
        <mxCell id="H1dTvE5KnR3uwUeOF3dF-30" value="USER" style="ellipse;whiteSpace=wrap;html=1;aspect=fixed;" parent="1" vertex="1">
          <mxGeometry x="1030" y="-550" width="80" height="80" as="geometry" />
        </mxCell>
        <mxCell id="H1dTvE5KnR3uwUeOF3dF-32" style="edgeStyle=orthogonalEdgeStyle;rounded=0;orthogonalLoop=1;jettySize=auto;html=1;entryX=0.543;entryY=1.006;entryDx=0;entryDy=0;entryPerimeter=0;" parent="1" source="H1dTvE5KnR3uwUeOF3dF-30" target="H1dTvE5KnR3uwUeOF3dF-1" edge="1">
          <mxGeometry relative="1" as="geometry" />
        </mxCell>
        <mxCell id="H1dTvE5KnR3uwUeOF3dF-59" style="edgeStyle=orthogonalEdgeStyle;rounded=0;orthogonalLoop=1;jettySize=auto;html=1;" parent="1" source="H1dTvE5KnR3uwUeOF3dF-33" target="H1dTvE5KnR3uwUeOF3dF-56" edge="1">
          <mxGeometry relative="1" as="geometry" />
        </mxCell>
        <mxCell id="HJofYxl7nrpDS_eS0d2l-10" style="edgeStyle=orthogonalEdgeStyle;rounded=0;orthogonalLoop=1;jettySize=auto;html=1;exitX=0.5;exitY=0;exitDx=0;exitDy=0;entryX=0;entryY=0.5;entryDx=0;entryDy=0;" parent="1" source="H1dTvE5KnR3uwUeOF3dF-33" target="HJofYxl7nrpDS_eS0d2l-8" edge="1">
          <mxGeometry relative="1" as="geometry" />
        </mxCell>
        <mxCell id="H1dTvE5KnR3uwUeOF3dF-33" value="Программы" style="rounded=0;whiteSpace=wrap;html=1;" parent="1" vertex="1">
          <mxGeometry x="1010" y="-360" width="120" height="60" as="geometry" />
        </mxCell>
        <mxCell id="H1dTvE5KnR3uwUeOF3dF-38" style="edgeStyle=orthogonalEdgeStyle;rounded=0;orthogonalLoop=1;jettySize=auto;html=1;" parent="1" source="H1dTvE5KnR3uwUeOF3dF-34" target="H1dTvE5KnR3uwUeOF3dF-36" edge="1">
          <mxGeometry relative="1" as="geometry" />
        </mxCell>
        <mxCell id="H1dTvE5KnR3uwUeOF3dF-39" style="edgeStyle=orthogonalEdgeStyle;rounded=0;orthogonalLoop=1;jettySize=auto;html=1;entryX=0.5;entryY=1;entryDx=0;entryDy=0;" parent="1" source="H1dTvE5KnR3uwUeOF3dF-34" target="H1dTvE5KnR3uwUeOF3dF-33" edge="1">
          <mxGeometry relative="1" as="geometry" />
        </mxCell>
        <mxCell id="H1dTvE5KnR3uwUeOF3dF-34" value="Programme Info" style="rounded=0;whiteSpace=wrap;html=1;movable=1;resizable=1;rotatable=1;deletable=1;editable=1;locked=0;connectable=1;" parent="1" vertex="1">
          <mxGeometry x="1010" y="-240" width="120" height="60" as="geometry" />
        </mxCell>
        <mxCell id="H1dTvE5KnR3uwUeOF3dF-35" value="Название&lt;br&gt;Версия&lt;br&gt;Расположение ПО&lt;br&gt;Уровень угрозы&lt;br&gt;Дата обновления" style="rounded=0;whiteSpace=wrap;html=1;movable=1;resizable=1;rotatable=1;deletable=1;editable=1;locked=0;connectable=1;" parent="1" vertex="1">
          <mxGeometry x="1010" y="-180" width="120" height="90" as="geometry" />
        </mxCell>
        <mxCell id="H1dTvE5KnR3uwUeOF3dF-36" value="Доверенная зона" style="rounded=0;whiteSpace=wrap;html=1;" parent="1" vertex="1">
          <mxGeometry x="1170" y="-240" width="120" height="60" as="geometry" />
        </mxCell>
        <mxCell id="H1dTvE5KnR3uwUeOF3dF-42" style="edgeStyle=orthogonalEdgeStyle;rounded=0;orthogonalLoop=1;jettySize=auto;html=1;entryX=0.5;entryY=1;entryDx=0;entryDy=0;" parent="1" source="H1dTvE5KnR3uwUeOF3dF-40" target="H1dTvE5KnR3uwUeOF3dF-36" edge="1">
          <mxGeometry relative="1" as="geometry" />
        </mxCell>
        <mxCell id="H1dTvE5KnR3uwUeOF3dF-40" value="Редактирование" style="rounded=0;whiteSpace=wrap;html=1;" parent="1" vertex="1">
          <mxGeometry x="1170" y="-150" width="120" height="60" as="geometry" />
        </mxCell>
        <mxCell id="H1dTvE5KnR3uwUeOF3dF-41" value="Добавить&lt;br&gt;Сохранить&lt;br&gt;Удалить" style="rounded=0;whiteSpace=wrap;html=1;" parent="1" vertex="1">
          <mxGeometry x="1170" y="-90" width="120" height="60" as="geometry" />
        </mxCell>
        <mxCell id="H1dTvE5KnR3uwUeOF3dF-48" style="edgeStyle=orthogonalEdgeStyle;rounded=0;orthogonalLoop=1;jettySize=auto;html=1;entryX=0;entryY=0.5;entryDx=0;entryDy=0;" parent="1" source="H1dTvE5KnR3uwUeOF3dF-43" target="H1dTvE5KnR3uwUeOF3dF-33" edge="1">
          <mxGeometry relative="1" as="geometry">
            <Array as="points">
              <mxPoint x="870" y="-330" />
            </Array>
          </mxGeometry>
        </mxCell>
        <mxCell id="H1dTvE5KnR3uwUeOF3dF-43" value="Поиск программ" style="rounded=0;whiteSpace=wrap;html=1;" parent="1" vertex="1">
          <mxGeometry x="810" y="-240" width="120" height="60" as="geometry" />
        </mxCell>
        <mxCell id="H1dTvE5KnR3uwUeOF3dF-47" style="edgeStyle=orthogonalEdgeStyle;rounded=0;orthogonalLoop=1;jettySize=auto;html=1;entryX=0.5;entryY=1;entryDx=0;entryDy=0;" parent="1" source="H1dTvE5KnR3uwUeOF3dF-44" target="H1dTvE5KnR3uwUeOF3dF-43" edge="1">
          <mxGeometry relative="1" as="geometry" />
        </mxCell>
        <mxCell id="H1dTvE5KnR3uwUeOF3dF-44" value="Работа поиска" style="rounded=0;whiteSpace=wrap;html=1;" parent="1" vertex="1">
          <mxGeometry x="810" y="-100" width="120" height="60" as="geometry" />
        </mxCell>
        <mxCell id="H1dTvE5KnR3uwUeOF3dF-46" value="По областям&lt;br&gt;По папкам&lt;br&gt;По всей системе" style="rounded=0;whiteSpace=wrap;html=1;" parent="1" vertex="1">
          <mxGeometry x="810" y="-40" width="120" height="60" as="geometry" />
        </mxCell>
        <mxCell id="H1dTvE5KnR3uwUeOF3dF-52" style="edgeStyle=orthogonalEdgeStyle;rounded=0;orthogonalLoop=1;jettySize=auto;html=1;entryX=0.5;entryY=1;entryDx=0;entryDy=0;" parent="1" source="H1dTvE5KnR3uwUeOF3dF-50" target="H1dTvE5KnR3uwUeOF3dF-35" edge="1">
          <mxGeometry relative="1" as="geometry" />
        </mxCell>
        <mxCell id="H1dTvE5KnR3uwUeOF3dF-50" value="Уровень угрозы" style="rounded=0;whiteSpace=wrap;html=1;" parent="1" vertex="1">
          <mxGeometry x="1010" y="-60" width="120" height="60" as="geometry" />
        </mxCell>
        <mxCell id="H1dTvE5KnR3uwUeOF3dF-51" value="Критический&lt;br&gt;Высокий&lt;br&gt;Средний&lt;br&gt;Низкий&lt;br&gt;Отсутствует" style="rounded=0;whiteSpace=wrap;html=1;" parent="1" vertex="1">
          <mxGeometry x="1010" width="120" height="80" as="geometry" />
        </mxCell>
        <mxCell id="H1dTvE5KnR3uwUeOF3dF-55" style="edgeStyle=orthogonalEdgeStyle;rounded=0;orthogonalLoop=1;jettySize=auto;html=1;entryX=0.75;entryY=0;entryDx=0;entryDy=0;" parent="1" source="H1dTvE5KnR3uwUeOF3dF-54" target="H1dTvE5KnR3uwUeOF3dF-34" edge="1">
          <mxGeometry relative="1" as="geometry">
            <Array as="points">
              <mxPoint x="1430" y="-260" />
              <mxPoint x="1100" y="-260" />
            </Array>
          </mxGeometry>
        </mxCell>
        <mxCell id="H1dTvE5KnR3uwUeOF3dF-57" style="edgeStyle=orthogonalEdgeStyle;rounded=0;orthogonalLoop=1;jettySize=auto;html=1;entryX=0;entryY=0.5;entryDx=0;entryDy=0;" parent="1" source="H1dTvE5KnR3uwUeOF3dF-54" target="H1dTvE5KnR3uwUeOF3dF-56" edge="1">
          <mxGeometry relative="1" as="geometry" />
        </mxCell>
        <mxCell id="H1dTvE5KnR3uwUeOF3dF-54" value="Парсинг" style="rounded=0;whiteSpace=wrap;html=1;" parent="1" vertex="1">
          <mxGeometry x="1370" y="-240" width="260" height="260" as="geometry" />
        </mxCell>
        <mxCell id="H1dTvE5KnR3uwUeOF3dF-62" style="edgeStyle=orthogonalEdgeStyle;rounded=0;orthogonalLoop=1;jettySize=auto;html=1;entryX=0;entryY=0.5;entryDx=0;entryDy=0;" parent="1" source="H1dTvE5KnR3uwUeOF3dF-56" target="H1dTvE5KnR3uwUeOF3dF-60" edge="1">
          <mxGeometry relative="1" as="geometry" />
        </mxCell>
        <mxCell id="H1dTvE5KnR3uwUeOF3dF-64" style="edgeStyle=orthogonalEdgeStyle;rounded=0;orthogonalLoop=1;jettySize=auto;html=1;entryX=0;entryY=0.5;entryDx=0;entryDy=0;" parent="1" source="H1dTvE5KnR3uwUeOF3dF-56" target="H1dTvE5KnR3uwUeOF3dF-61" edge="1">
          <mxGeometry relative="1" as="geometry">
            <Array as="points">
              <mxPoint x="1925" y="-190" />
              <mxPoint x="1925" y="-100" />
            </Array>
          </mxGeometry>
        </mxCell>
        <mxCell id="H1dTvE5KnR3uwUeOF3dF-56" value="Правила" style="rounded=0;whiteSpace=wrap;html=1;" parent="1" vertex="1">
          <mxGeometry x="1710" y="-260" width="230" height="300" as="geometry" />
        </mxCell>
        <mxCell id="H1dTvE5KnR3uwUeOF3dF-68" style="edgeStyle=orthogonalEdgeStyle;rounded=0;orthogonalLoop=1;jettySize=auto;html=1;entryX=0.5;entryY=1;entryDx=0;entryDy=0;" parent="1" source="H1dTvE5KnR3uwUeOF3dF-60" target="H1dTvE5KnR3uwUeOF3dF-67" edge="1">
          <mxGeometry relative="1" as="geometry" />
        </mxCell>
        <mxCell id="H1dTvE5KnR3uwUeOF3dF-60" value="ПО защищено" style="rounded=0;whiteSpace=wrap;html=1;" parent="1" vertex="1">
          <mxGeometry x="2030" y="-240" width="120" height="60" as="geometry" />
        </mxCell>
        <mxCell id="H1dTvE5KnR3uwUeOF3dF-71" style="edgeStyle=orthogonalEdgeStyle;rounded=0;orthogonalLoop=1;jettySize=auto;html=1;exitX=1;exitY=0.75;exitDx=0;exitDy=0;entryX=0.5;entryY=1;entryDx=0;entryDy=0;" parent="1" source="H1dTvE5KnR3uwUeOF3dF-61" target="H1dTvE5KnR3uwUeOF3dF-70" edge="1">
          <mxGeometry relative="1" as="geometry" />
        </mxCell>
        <mxCell id="H1dTvE5KnR3uwUeOF3dF-61" value="ПО уязвимо" style="rounded=0;whiteSpace=wrap;html=1;" parent="1" vertex="1">
          <mxGeometry x="2030" y="-130" width="120" height="60" as="geometry" />
        </mxCell>
        <mxCell id="H1dTvE5KnR3uwUeOF3dF-67" value="Список защищенных программ" style="rounded=0;whiteSpace=wrap;html=1;" parent="1" vertex="1">
          <mxGeometry x="2300" y="-350" width="120" height="60" as="geometry" />
        </mxCell>
        <mxCell id="H1dTvE5KnR3uwUeOF3dF-70" value="Список уязвимых программ" style="rounded=0;whiteSpace=wrap;html=1;" parent="1" vertex="1">
          <mxGeometry x="2510" y="-350" width="120" height="60" as="geometry" />
        </mxCell>
        <mxCell id="H1dTvE5KnR3uwUeOF3dF-74" value="Активация ключа" style="rounded=0;whiteSpace=wrap;html=1;" parent="1" vertex="1">
          <mxGeometry x="1210" y="-540" width="120" height="60" as="geometry" />
        </mxCell>
        <mxCell id="H1dTvE5KnR3uwUeOF3dF-75" value="Включение автозапуска" style="rounded=0;whiteSpace=wrap;html=1;" parent="1" vertex="1">
          <mxGeometry x="1410" y="-540" width="120" height="60" as="geometry" />
        </mxCell>
        <mxCell id="H1dTvE5KnR3uwUeOF3dF-76" value="Назначение времени проверки" style="rounded=0;whiteSpace=wrap;html=1;" parent="1" vertex="1">
          <mxGeometry x="1610" y="-540" width="120" height="60" as="geometry" />
        </mxCell>
        <mxCell id="HJofYxl7nrpDS_eS0d2l-2" value="Первый запуск" style="rounded=0;whiteSpace=wrap;html=1;" parent="1" vertex="1">
          <mxGeometry x="800" y="-310" width="60" height="30" as="geometry" />
        </mxCell>
        <mxCell id="HJofYxl7nrpDS_eS0d2l-4" value="База Данных" style="rounded=0;whiteSpace=wrap;html=1;" parent="1" vertex="1">
          <mxGeometry x="1560" y="50" width="120" height="60" as="geometry" />
        </mxCell>
        <mxCell id="HJofYxl7nrpDS_eS0d2l-6" value="Результат работы правил" style="rounded=0;whiteSpace=wrap;html=1;" parent="1" vertex="1">
          <mxGeometry x="1970" y="-325" width="120" height="60" as="geometry" />
        </mxCell>
        <mxCell id="HJofYxl7nrpDS_eS0d2l-8" value="Списки" style="rounded=0;whiteSpace=wrap;html=1;" parent="1" vertex="1">
          <mxGeometry x="2260" y="-450" width="120" height="30" as="geometry" />
        </mxCell>
        <mxCell id="HJofYxl7nrpDS_eS0d2l-12" value="Настройки" style="rounded=0;whiteSpace=wrap;html=1;" parent="1" vertex="1">
          <mxGeometry x="1140" y="-600" width="90" height="30" as="geometry" />
        </mxCell>
        <mxCell id="HJofYxl7nrpDS_eS0d2l-13" style="edgeStyle=orthogonalEdgeStyle;rounded=0;orthogonalLoop=1;jettySize=auto;html=1;exitX=1;exitY=0.5;exitDx=0;exitDy=0;entryX=0.004;entryY=0.596;entryDx=0;entryDy=0;entryPerimeter=0;" parent="1" source="H1dTvE5KnR3uwUeOF3dF-30" target="HJofYxl7nrpDS_eS0d2l-11" edge="1">
          <mxGeometry relative="1" as="geometry" />
        </mxCell>
      </root>
    </mxGraphModel>
  </diagram>
  <diagram id="GOWQyLSIe0LJ_sA8KceI" name="Страница — 2">
    <mxGraphModel dx="2867" dy="1398" grid="1" gridSize="10" guides="1" tooltips="1" connect="1" arrows="1" fold="1" page="1" pageScale="1" pageWidth="827" pageHeight="1169" math="0" shadow="0">
      <root>
        <mxCell id="0" />
        <mxCell id="1" parent="0" />
        <mxCell id="t8NzeawrsKpQ0IfHm9YZ-1" value="" style="rounded=0;whiteSpace=wrap;html=1;" vertex="1" parent="1">
          <mxGeometry x="500" y="270" width="3240" height="2590" as="geometry" />
        </mxCell>
        <mxCell id="t8NzeawrsKpQ0IfHm9YZ-2" value="" style="rounded=0;whiteSpace=wrap;html=1;" vertex="1" parent="1">
          <mxGeometry x="770" y="1700" width="920" height="1070" as="geometry" />
        </mxCell>
        <mxCell id="t8NzeawrsKpQ0IfHm9YZ-3" value="" style="rounded=0;whiteSpace=wrap;html=1;" vertex="1" parent="1">
          <mxGeometry x="2580" y="1990" width="270" height="500" as="geometry" />
        </mxCell>
        <mxCell id="t8NzeawrsKpQ0IfHm9YZ-4" value="" style="rounded=0;whiteSpace=wrap;html=1;" vertex="1" parent="1">
          <mxGeometry x="1210" y="2090" width="440" height="660" as="geometry" />
        </mxCell>
        <mxCell id="t8NzeawrsKpQ0IfHm9YZ-5" value="" style="rounded=0;whiteSpace=wrap;html=1;" vertex="1" parent="1">
          <mxGeometry x="970" y="1760" width="230" height="120" as="geometry" />
        </mxCell>
        <mxCell id="t8NzeawrsKpQ0IfHm9YZ-6" value="" style="rounded=0;whiteSpace=wrap;html=1;" vertex="1" parent="1">
          <mxGeometry x="970" y="1880" width="230" height="740" as="geometry" />
        </mxCell>
        <mxCell id="t8NzeawrsKpQ0IfHm9YZ-7" style="edgeStyle=orthogonalEdgeStyle;rounded=0;orthogonalLoop=1;jettySize=auto;html=1;exitX=0;exitY=0.75;exitDx=0;exitDy=0;entryX=0;entryY=0.5;entryDx=0;entryDy=0;" edge="1" parent="1" source="t8NzeawrsKpQ0IfHm9YZ-16" target="t8NzeawrsKpQ0IfHm9YZ-20">
          <mxGeometry relative="1" as="geometry" />
        </mxCell>
        <mxCell id="t8NzeawrsKpQ0IfHm9YZ-8" style="edgeStyle=orthogonalEdgeStyle;rounded=0;orthogonalLoop=1;jettySize=auto;html=1;exitX=0;exitY=0.75;exitDx=0;exitDy=0;entryX=0;entryY=0.5;entryDx=0;entryDy=0;" edge="1" parent="1" source="t8NzeawrsKpQ0IfHm9YZ-16" target="t8NzeawrsKpQ0IfHm9YZ-22">
          <mxGeometry relative="1" as="geometry" />
        </mxCell>
        <mxCell id="t8NzeawrsKpQ0IfHm9YZ-9" style="edgeStyle=orthogonalEdgeStyle;rounded=0;orthogonalLoop=1;jettySize=auto;html=1;exitX=0;exitY=0.75;exitDx=0;exitDy=0;entryX=0;entryY=0.5;entryDx=0;entryDy=0;" edge="1" parent="1" source="t8NzeawrsKpQ0IfHm9YZ-16" target="t8NzeawrsKpQ0IfHm9YZ-28">
          <mxGeometry relative="1" as="geometry" />
        </mxCell>
        <mxCell id="t8NzeawrsKpQ0IfHm9YZ-10" style="edgeStyle=orthogonalEdgeStyle;rounded=0;orthogonalLoop=1;jettySize=auto;html=1;exitX=0;exitY=0.75;exitDx=0;exitDy=0;entryX=0;entryY=0.5;entryDx=0;entryDy=0;" edge="1" parent="1" source="t8NzeawrsKpQ0IfHm9YZ-16" target="t8NzeawrsKpQ0IfHm9YZ-30">
          <mxGeometry relative="1" as="geometry" />
        </mxCell>
        <mxCell id="t8NzeawrsKpQ0IfHm9YZ-11" style="edgeStyle=orthogonalEdgeStyle;rounded=0;orthogonalLoop=1;jettySize=auto;html=1;exitX=0;exitY=0.75;exitDx=0;exitDy=0;entryX=0;entryY=0.5;entryDx=0;entryDy=0;" edge="1" parent="1" source="t8NzeawrsKpQ0IfHm9YZ-16" target="t8NzeawrsKpQ0IfHm9YZ-32">
          <mxGeometry relative="1" as="geometry" />
        </mxCell>
        <mxCell id="t8NzeawrsKpQ0IfHm9YZ-12" style="edgeStyle=orthogonalEdgeStyle;rounded=0;orthogonalLoop=1;jettySize=auto;html=1;exitX=0;exitY=0.75;exitDx=0;exitDy=0;entryX=0;entryY=0.5;entryDx=0;entryDy=0;" edge="1" parent="1" source="t8NzeawrsKpQ0IfHm9YZ-16" target="t8NzeawrsKpQ0IfHm9YZ-26">
          <mxGeometry relative="1" as="geometry" />
        </mxCell>
        <mxCell id="t8NzeawrsKpQ0IfHm9YZ-13" style="edgeStyle=orthogonalEdgeStyle;rounded=0;orthogonalLoop=1;jettySize=auto;html=1;exitX=0;exitY=0.75;exitDx=0;exitDy=0;entryX=0;entryY=0.5;entryDx=0;entryDy=0;" edge="1" parent="1" source="t8NzeawrsKpQ0IfHm9YZ-16" target="t8NzeawrsKpQ0IfHm9YZ-24">
          <mxGeometry relative="1" as="geometry" />
        </mxCell>
        <mxCell id="t8NzeawrsKpQ0IfHm9YZ-14" style="edgeStyle=orthogonalEdgeStyle;rounded=0;orthogonalLoop=1;jettySize=auto;html=1;exitX=0;exitY=0.75;exitDx=0;exitDy=0;entryX=0;entryY=0.5;entryDx=0;entryDy=0;" edge="1" parent="1" source="t8NzeawrsKpQ0IfHm9YZ-16" target="t8NzeawrsKpQ0IfHm9YZ-18">
          <mxGeometry relative="1" as="geometry" />
        </mxCell>
        <mxCell id="t8NzeawrsKpQ0IfHm9YZ-15" style="edgeStyle=orthogonalEdgeStyle;rounded=0;orthogonalLoop=1;jettySize=auto;html=1;exitX=0.5;exitY=0;exitDx=0;exitDy=0;entryX=0.5;entryY=0;entryDx=0;entryDy=0;" edge="1" parent="1" source="t8NzeawrsKpQ0IfHm9YZ-16" target="t8NzeawrsKpQ0IfHm9YZ-53">
          <mxGeometry relative="1" as="geometry" />
        </mxCell>
        <mxCell id="t8NzeawrsKpQ0IfHm9YZ-16" value="Комплектующие" style="rounded=1;whiteSpace=wrap;html=1;labelBackgroundColor=none;fillColor=#A8DADC;strokeColor=#457B9D;fontColor=#1D3557;" vertex="1" parent="1">
          <mxGeometry x="1010" y="1805" width="120" height="60" as="geometry" />
        </mxCell>
        <mxCell id="t8NzeawrsKpQ0IfHm9YZ-17" style="edgeStyle=orthogonalEdgeStyle;rounded=0;orthogonalLoop=1;jettySize=auto;html=1;exitX=1;exitY=0.5;exitDx=0;exitDy=0;entryX=0;entryY=0.5;entryDx=0;entryDy=0;" edge="1" parent="1" source="t8NzeawrsKpQ0IfHm9YZ-18" target="t8NzeawrsKpQ0IfHm9YZ-45">
          <mxGeometry relative="1" as="geometry" />
        </mxCell>
        <mxCell id="t8NzeawrsKpQ0IfHm9YZ-18" value="Материнская плата" style="rounded=1;whiteSpace=wrap;html=1;labelBackgroundColor=none;fillColor=#A8DADC;strokeColor=#457B9D;fontColor=#1D3557;" vertex="1" parent="1">
          <mxGeometry x="1010" y="1920" width="120" height="60" as="geometry" />
        </mxCell>
        <mxCell id="t8NzeawrsKpQ0IfHm9YZ-19" style="edgeStyle=orthogonalEdgeStyle;rounded=0;orthogonalLoop=1;jettySize=auto;html=1;exitX=1;exitY=0.5;exitDx=0;exitDy=0;entryX=0;entryY=0.5;entryDx=0;entryDy=0;" edge="1" parent="1" source="t8NzeawrsKpQ0IfHm9YZ-20" target="t8NzeawrsKpQ0IfHm9YZ-45">
          <mxGeometry relative="1" as="geometry" />
        </mxCell>
        <mxCell id="t8NzeawrsKpQ0IfHm9YZ-20" value="Процессор&amp;nbsp;" style="rounded=1;whiteSpace=wrap;html=1;labelBackgroundColor=none;fillColor=#A8DADC;strokeColor=#457B9D;fontColor=#1D3557;" vertex="1" parent="1">
          <mxGeometry x="1010" y="2000" width="120" height="60" as="geometry" />
        </mxCell>
        <mxCell id="t8NzeawrsKpQ0IfHm9YZ-21" style="edgeStyle=orthogonalEdgeStyle;rounded=0;orthogonalLoop=1;jettySize=auto;html=1;exitX=1;exitY=0.5;exitDx=0;exitDy=0;entryX=0;entryY=0.5;entryDx=0;entryDy=0;" edge="1" parent="1" source="t8NzeawrsKpQ0IfHm9YZ-22" target="t8NzeawrsKpQ0IfHm9YZ-45">
          <mxGeometry relative="1" as="geometry" />
        </mxCell>
        <mxCell id="t8NzeawrsKpQ0IfHm9YZ-22" value="Кулер" style="whiteSpace=wrap;html=1;rounded=1;labelBackgroundColor=none;fillColor=#A8DADC;strokeColor=#457B9D;fontColor=#1D3557;" vertex="1" parent="1">
          <mxGeometry x="1010" y="2260" width="120" height="60" as="geometry" />
        </mxCell>
        <mxCell id="t8NzeawrsKpQ0IfHm9YZ-23" style="edgeStyle=orthogonalEdgeStyle;rounded=0;orthogonalLoop=1;jettySize=auto;html=1;exitX=1;exitY=0.5;exitDx=0;exitDy=0;entryX=0;entryY=0.5;entryDx=0;entryDy=0;" edge="1" parent="1" source="t8NzeawrsKpQ0IfHm9YZ-24" target="t8NzeawrsKpQ0IfHm9YZ-45">
          <mxGeometry relative="1" as="geometry" />
        </mxCell>
        <mxCell id="t8NzeawrsKpQ0IfHm9YZ-24" value="Оперативная память&lt;br&gt;" style="whiteSpace=wrap;html=1;rounded=1;labelBackgroundColor=none;fillColor=#A8DADC;strokeColor=#457B9D;fontColor=#1D3557;" vertex="1" parent="1">
          <mxGeometry x="1010" y="2080" width="120" height="60" as="geometry" />
        </mxCell>
        <mxCell id="t8NzeawrsKpQ0IfHm9YZ-25" style="edgeStyle=orthogonalEdgeStyle;rounded=0;orthogonalLoop=1;jettySize=auto;html=1;exitX=1;exitY=0.5;exitDx=0;exitDy=0;entryX=0;entryY=0.5;entryDx=0;entryDy=0;" edge="1" parent="1" source="t8NzeawrsKpQ0IfHm9YZ-26" target="t8NzeawrsKpQ0IfHm9YZ-45">
          <mxGeometry relative="1" as="geometry" />
        </mxCell>
        <mxCell id="t8NzeawrsKpQ0IfHm9YZ-26" value="Видеокарта" style="whiteSpace=wrap;html=1;rounded=1;labelBackgroundColor=none;fillColor=#A8DADC;strokeColor=#457B9D;fontColor=#1D3557;" vertex="1" parent="1">
          <mxGeometry x="1010" y="2170" width="120" height="60" as="geometry" />
        </mxCell>
        <mxCell id="t8NzeawrsKpQ0IfHm9YZ-27" style="edgeStyle=orthogonalEdgeStyle;rounded=0;orthogonalLoop=1;jettySize=auto;html=1;exitX=1;exitY=0.5;exitDx=0;exitDy=0;entryX=0;entryY=0.5;entryDx=0;entryDy=0;" edge="1" parent="1" source="t8NzeawrsKpQ0IfHm9YZ-28" target="t8NzeawrsKpQ0IfHm9YZ-45">
          <mxGeometry relative="1" as="geometry" />
        </mxCell>
        <mxCell id="t8NzeawrsKpQ0IfHm9YZ-28" value="Накопитель" style="whiteSpace=wrap;html=1;rounded=1;labelBackgroundColor=none;fillColor=#A8DADC;strokeColor=#457B9D;fontColor=#1D3557;" vertex="1" parent="1">
          <mxGeometry x="1010" y="2350" width="120" height="60" as="geometry" />
        </mxCell>
        <mxCell id="t8NzeawrsKpQ0IfHm9YZ-29" style="edgeStyle=orthogonalEdgeStyle;rounded=0;orthogonalLoop=1;jettySize=auto;html=1;exitX=1;exitY=0.5;exitDx=0;exitDy=0;entryX=0;entryY=0.5;entryDx=0;entryDy=0;" edge="1" parent="1" source="t8NzeawrsKpQ0IfHm9YZ-30" target="t8NzeawrsKpQ0IfHm9YZ-45">
          <mxGeometry relative="1" as="geometry" />
        </mxCell>
        <mxCell id="t8NzeawrsKpQ0IfHm9YZ-30" value="Блок Питания" style="rounded=1;whiteSpace=wrap;html=1;labelBackgroundColor=none;fillColor=#A8DADC;strokeColor=#457B9D;fontColor=#1D3557;" vertex="1" parent="1">
          <mxGeometry x="1010" y="2450" width="120" height="60" as="geometry" />
        </mxCell>
        <mxCell id="t8NzeawrsKpQ0IfHm9YZ-31" style="edgeStyle=orthogonalEdgeStyle;rounded=0;orthogonalLoop=1;jettySize=auto;html=1;exitX=1;exitY=0.5;exitDx=0;exitDy=0;entryX=0;entryY=0.5;entryDx=0;entryDy=0;" edge="1" parent="1" source="t8NzeawrsKpQ0IfHm9YZ-32" target="t8NzeawrsKpQ0IfHm9YZ-45">
          <mxGeometry relative="1" as="geometry" />
        </mxCell>
        <mxCell id="t8NzeawrsKpQ0IfHm9YZ-32" value="Системный блок" style="rounded=1;whiteSpace=wrap;html=1;labelBackgroundColor=none;fillColor=#A8DADC;strokeColor=#457B9D;fontColor=#1D3557;" vertex="1" parent="1">
          <mxGeometry x="1010" y="2540" width="120" height="60" as="geometry" />
        </mxCell>
        <mxCell id="t8NzeawrsKpQ0IfHm9YZ-33" style="edgeStyle=orthogonalEdgeStyle;rounded=0;orthogonalLoop=1;jettySize=auto;html=1;exitX=0;exitY=0.5;exitDx=0;exitDy=0;entryX=0;entryY=0.5;entryDx=0;entryDy=0;" edge="1" parent="1" source="t8NzeawrsKpQ0IfHm9YZ-40" target="t8NzeawrsKpQ0IfHm9YZ-16">
          <mxGeometry relative="1" as="geometry" />
        </mxCell>
        <mxCell id="t8NzeawrsKpQ0IfHm9YZ-34" value="Выбирает вручную" style="edgeLabel;html=1;align=center;verticalAlign=middle;resizable=0;points=[];" vertex="1" connectable="0" parent="t8NzeawrsKpQ0IfHm9YZ-33">
          <mxGeometry x="-0.09" y="3" relative="1" as="geometry">
            <mxPoint as="offset" />
          </mxGeometry>
        </mxCell>
        <mxCell id="t8NzeawrsKpQ0IfHm9YZ-35" style="edgeStyle=orthogonalEdgeStyle;rounded=0;orthogonalLoop=1;jettySize=auto;html=1;exitX=0.5;exitY=1;exitDx=0;exitDy=0;entryX=0;entryY=0.5;entryDx=0;entryDy=0;" edge="1" parent="1" source="t8NzeawrsKpQ0IfHm9YZ-40" target="t8NzeawrsKpQ0IfHm9YZ-105">
          <mxGeometry relative="1" as="geometry" />
        </mxCell>
        <mxCell id="t8NzeawrsKpQ0IfHm9YZ-36" value="просит систему собрать пк&amp;nbsp;" style="edgeLabel;html=1;align=center;verticalAlign=middle;resizable=0;points=[];" vertex="1" connectable="0" parent="t8NzeawrsKpQ0IfHm9YZ-35">
          <mxGeometry x="-0.3305" relative="1" as="geometry">
            <mxPoint y="-1" as="offset" />
          </mxGeometry>
        </mxCell>
        <mxCell id="t8NzeawrsKpQ0IfHm9YZ-37" style="edgeStyle=orthogonalEdgeStyle;rounded=0;orthogonalLoop=1;jettySize=auto;html=1;exitX=0;exitY=0.5;exitDx=0;exitDy=0;entryX=0.25;entryY=0;entryDx=0;entryDy=0;" edge="1" parent="1" source="t8NzeawrsKpQ0IfHm9YZ-40" target="t8NzeawrsKpQ0IfHm9YZ-116">
          <mxGeometry relative="1" as="geometry" />
        </mxCell>
        <mxCell id="t8NzeawrsKpQ0IfHm9YZ-38" value="Редактирование" style="edgeLabel;html=1;align=center;verticalAlign=middle;resizable=0;points=[];" vertex="1" connectable="0" parent="t8NzeawrsKpQ0IfHm9YZ-37">
          <mxGeometry x="0.1888" relative="1" as="geometry">
            <mxPoint as="offset" />
          </mxGeometry>
        </mxCell>
        <mxCell id="t8NzeawrsKpQ0IfHm9YZ-39" style="edgeStyle=orthogonalEdgeStyle;rounded=0;orthogonalLoop=1;jettySize=auto;html=1;exitX=0.5;exitY=0;exitDx=0;exitDy=0;entryX=0.5;entryY=1;entryDx=0;entryDy=0;" edge="1" parent="1" source="t8NzeawrsKpQ0IfHm9YZ-40" target="t8NzeawrsKpQ0IfHm9YZ-124">
          <mxGeometry relative="1" as="geometry" />
        </mxCell>
        <mxCell id="t8NzeawrsKpQ0IfHm9YZ-40" value="User" style="ellipse;whiteSpace=wrap;html=1;" vertex="1" parent="1">
          <mxGeometry x="1025" y="970" width="120" height="100" as="geometry" />
        </mxCell>
        <mxCell id="t8NzeawrsKpQ0IfHm9YZ-41" value="Device" style="rounded=0;whiteSpace=wrap;html=1;" vertex="1" parent="1">
          <mxGeometry x="1150" y="1760" width="50" height="20" as="geometry" />
        </mxCell>
        <mxCell id="t8NzeawrsKpQ0IfHm9YZ-42" value="Device type" style="rounded=0;whiteSpace=wrap;html=1;" vertex="1" parent="1">
          <mxGeometry x="1120" y="1880" width="80" height="20" as="geometry" />
        </mxCell>
        <mxCell id="t8NzeawrsKpQ0IfHm9YZ-43" value="Device info" style="rounded=0;whiteSpace=wrap;html=1;" vertex="1" parent="1">
          <mxGeometry x="1265" y="2180" width="90" height="20" as="geometry" />
        </mxCell>
        <mxCell id="t8NzeawrsKpQ0IfHm9YZ-44" style="edgeStyle=orthogonalEdgeStyle;rounded=0;orthogonalLoop=1;jettySize=auto;html=1;exitX=1;exitY=0.5;exitDx=0;exitDy=0;entryX=0;entryY=0.5;entryDx=0;entryDy=0;" edge="1" parent="1" source="t8NzeawrsKpQ0IfHm9YZ-45" target="t8NzeawrsKpQ0IfHm9YZ-64">
          <mxGeometry relative="1" as="geometry" />
        </mxCell>
        <mxCell id="t8NzeawrsKpQ0IfHm9YZ-45" value="&lt;ol&gt;&lt;li&gt;Производитель&lt;/li&gt;&lt;li&gt;Характеристика&lt;/li&gt;&lt;li&gt;Цена&lt;/li&gt;&lt;li&gt;Область применения&lt;/li&gt;&lt;/ol&gt;" style="rounded=1;whiteSpace=wrap;html=1;labelBackgroundColor=none;fillColor=#A8DADC;strokeColor=#457B9D;fontColor=#1D3557;align=left;" vertex="1" parent="1">
          <mxGeometry x="1240" y="2200" width="140" height="110" as="geometry" />
        </mxCell>
        <mxCell id="t8NzeawrsKpQ0IfHm9YZ-46" style="edgeStyle=orthogonalEdgeStyle;rounded=0;orthogonalLoop=1;jettySize=auto;html=1;exitX=1;exitY=0.5;exitDx=0;exitDy=0;entryX=0.5;entryY=1;entryDx=0;entryDy=0;" edge="1" parent="1" source="t8NzeawrsKpQ0IfHm9YZ-47" target="t8NzeawrsKpQ0IfHm9YZ-53">
          <mxGeometry relative="1" as="geometry" />
        </mxCell>
        <mxCell id="t8NzeawrsKpQ0IfHm9YZ-47" value="&lt;font style=&quot;font-size: 36px;&quot;&gt;Совместимо&lt;/font&gt;" style="rounded=0;whiteSpace=wrap;html=1;" vertex="1" parent="1">
          <mxGeometry x="2590" y="2380" width="250" height="40" as="geometry" />
        </mxCell>
        <mxCell id="t8NzeawrsKpQ0IfHm9YZ-48" style="edgeStyle=orthogonalEdgeStyle;rounded=0;orthogonalLoop=1;jettySize=auto;html=1;exitX=0.5;exitY=0;exitDx=0;exitDy=0;entryX=0.5;entryY=1;entryDx=0;entryDy=0;" edge="1" parent="1" source="t8NzeawrsKpQ0IfHm9YZ-49" target="t8NzeawrsKpQ0IfHm9YZ-119">
          <mxGeometry relative="1" as="geometry" />
        </mxCell>
        <mxCell id="t8NzeawrsKpQ0IfHm9YZ-49" value="&lt;font style=&quot;font-size: 36px;&quot;&gt;Несовместимо&lt;/font&gt;" style="rounded=0;whiteSpace=wrap;html=1;" vertex="1" parent="1">
          <mxGeometry x="2590" y="2080" width="250" height="40" as="geometry" />
        </mxCell>
        <mxCell id="t8NzeawrsKpQ0IfHm9YZ-50" style="edgeStyle=orthogonalEdgeStyle;rounded=0;orthogonalLoop=1;jettySize=auto;html=1;exitX=0.5;exitY=0;exitDx=0;exitDy=0;entryX=0.5;entryY=1;entryDx=0;entryDy=0;" edge="1" parent="1" source="t8NzeawrsKpQ0IfHm9YZ-58" target="t8NzeawrsKpQ0IfHm9YZ-45">
          <mxGeometry relative="1" as="geometry" />
        </mxCell>
        <mxCell id="t8NzeawrsKpQ0IfHm9YZ-51" value="&lt;ol&gt;&lt;li&gt;Игровой&lt;/li&gt;&lt;li&gt;Офисный&lt;/li&gt;&lt;li&gt;Серверный&lt;/li&gt;&lt;li&gt;Рабочий&lt;/li&gt;&lt;/ol&gt;" style="rounded=1;whiteSpace=wrap;html=1;labelBackgroundColor=none;fillColor=#A8DADC;strokeColor=#457B9D;fontColor=#1D3557;align=left;" vertex="1" parent="1">
          <mxGeometry x="1230" y="2420" width="160" height="110" as="geometry" />
        </mxCell>
        <mxCell id="t8NzeawrsKpQ0IfHm9YZ-52" style="edgeStyle=orthogonalEdgeStyle;rounded=0;orthogonalLoop=1;jettySize=auto;html=1;exitX=1;exitY=0.5;exitDx=0;exitDy=0;entryX=0;entryY=0.5;entryDx=0;entryDy=0;" edge="1" parent="1" source="t8NzeawrsKpQ0IfHm9YZ-53" target="t8NzeawrsKpQ0IfHm9YZ-153">
          <mxGeometry relative="1" as="geometry" />
        </mxCell>
        <mxCell id="t8NzeawrsKpQ0IfHm9YZ-53" value="&lt;font style=&quot;font-size: 14px;&quot;&gt;Собрать Компьютер&lt;/font&gt;" style="rounded=0;whiteSpace=wrap;html=1;" vertex="1" parent="1">
          <mxGeometry x="3020" y="2140" width="120" height="60" as="geometry" />
        </mxCell>
        <mxCell id="t8NzeawrsKpQ0IfHm9YZ-54" style="edgeStyle=orthogonalEdgeStyle;rounded=0;orthogonalLoop=1;jettySize=auto;html=1;exitX=0.5;exitY=0;exitDx=0;exitDy=0;entryX=0.5;entryY=1;entryDx=0;entryDy=0;" edge="1" parent="1" source="t8NzeawrsKpQ0IfHm9YZ-55" target="t8NzeawrsKpQ0IfHm9YZ-45">
          <mxGeometry relative="1" as="geometry" />
        </mxCell>
        <mxCell id="t8NzeawrsKpQ0IfHm9YZ-55" value="&lt;ol&gt;&lt;li&gt;Особенности испльзования&lt;/li&gt;&lt;li&gt;Ограничения&lt;/li&gt;&lt;/ol&gt;" style="rounded=1;whiteSpace=wrap;html=1;labelBackgroundColor=none;fillColor=#A8DADC;strokeColor=#457B9D;fontColor=#1D3557;align=left;" vertex="1" parent="1">
          <mxGeometry x="1470" y="2410" width="160" height="110" as="geometry" />
        </mxCell>
        <mxCell id="t8NzeawrsKpQ0IfHm9YZ-56" value="Device info+" style="rounded=0;whiteSpace=wrap;html=1;" vertex="1" parent="1">
          <mxGeometry x="1490" y="2390" width="120" height="20" as="geometry" />
        </mxCell>
        <mxCell id="t8NzeawrsKpQ0IfHm9YZ-57" value="" style="edgeStyle=orthogonalEdgeStyle;rounded=0;orthogonalLoop=1;jettySize=auto;html=1;exitX=0.5;exitY=0;exitDx=0;exitDy=0;entryX=0.5;entryY=1;entryDx=0;entryDy=0;" edge="1" parent="1" source="t8NzeawrsKpQ0IfHm9YZ-51" target="t8NzeawrsKpQ0IfHm9YZ-58">
          <mxGeometry relative="1" as="geometry">
            <mxPoint x="1310" y="2350" as="sourcePoint" />
            <mxPoint x="1310" y="2255" as="targetPoint" />
          </mxGeometry>
        </mxCell>
        <mxCell id="t8NzeawrsKpQ0IfHm9YZ-58" value="Область применения" style="rounded=0;whiteSpace=wrap;html=1;" vertex="1" parent="1">
          <mxGeometry x="1245" y="2400" width="130" height="20" as="geometry" />
        </mxCell>
        <mxCell id="t8NzeawrsKpQ0IfHm9YZ-59" style="edgeStyle=orthogonalEdgeStyle;rounded=0;orthogonalLoop=1;jettySize=auto;html=1;exitX=0.5;exitY=0;exitDx=0;exitDy=0;entryX=0.5;entryY=1;entryDx=0;entryDy=0;" edge="1" parent="1" source="t8NzeawrsKpQ0IfHm9YZ-60" target="t8NzeawrsKpQ0IfHm9YZ-51">
          <mxGeometry relative="1" as="geometry" />
        </mxCell>
        <mxCell id="t8NzeawrsKpQ0IfHm9YZ-60" value="&lt;ol&gt;&lt;li&gt;В какой сфере используется&lt;/li&gt;&lt;li&gt;Для каких задач&amp;nbsp;&lt;br&gt;&lt;br&gt;И т.д&lt;/li&gt;&lt;/ol&gt;" style="rounded=1;whiteSpace=wrap;html=1;labelBackgroundColor=none;fillColor=#A8DADC;strokeColor=#457B9D;fontColor=#1D3557;align=left;" vertex="1" parent="1">
          <mxGeometry x="1230" y="2620" width="160" height="110" as="geometry" />
        </mxCell>
        <mxCell id="t8NzeawrsKpQ0IfHm9YZ-61" value="Рабочий (опрос)" style="rounded=0;whiteSpace=wrap;html=1;" vertex="1" parent="1">
          <mxGeometry x="1250" y="2600" width="120" height="20" as="geometry" />
        </mxCell>
        <mxCell id="t8NzeawrsKpQ0IfHm9YZ-62" style="edgeStyle=orthogonalEdgeStyle;rounded=0;orthogonalLoop=1;jettySize=auto;html=1;exitX=1;exitY=0.5;exitDx=0;exitDy=0;entryX=0.5;entryY=1;entryDx=0;entryDy=0;" edge="1" parent="1" source="t8NzeawrsKpQ0IfHm9YZ-64" target="t8NzeawrsKpQ0IfHm9YZ-49">
          <mxGeometry relative="1" as="geometry" />
        </mxCell>
        <mxCell id="t8NzeawrsKpQ0IfHm9YZ-63" style="edgeStyle=orthogonalEdgeStyle;rounded=0;orthogonalLoop=1;jettySize=auto;html=1;exitX=1;exitY=0.5;exitDx=0;exitDy=0;entryX=0.5;entryY=0;entryDx=0;entryDy=0;" edge="1" parent="1" source="t8NzeawrsKpQ0IfHm9YZ-64" target="t8NzeawrsKpQ0IfHm9YZ-47">
          <mxGeometry relative="1" as="geometry" />
        </mxCell>
        <mxCell id="t8NzeawrsKpQ0IfHm9YZ-64" value="" style="rounded=0;whiteSpace=wrap;html=1;" vertex="1" parent="1">
          <mxGeometry x="1730" y="1910" width="810" height="690" as="geometry" />
        </mxCell>
        <mxCell id="t8NzeawrsKpQ0IfHm9YZ-65" value="Сравнение сокетов" style="edgeStyle=orthogonalEdgeStyle;rounded=1;orthogonalLoop=1;jettySize=auto;html=1;labelBackgroundColor=none;fontColor=default;strokeColor=#457B9D;" edge="1" parent="1" source="t8NzeawrsKpQ0IfHm9YZ-75" target="t8NzeawrsKpQ0IfHm9YZ-82">
          <mxGeometry relative="1" as="geometry" />
        </mxCell>
        <mxCell id="t8NzeawrsKpQ0IfHm9YZ-66" value="выбор поддерживаемой памяти" style="edgeStyle=orthogonalEdgeStyle;rounded=1;orthogonalLoop=1;jettySize=auto;html=1;exitX=0.5;exitY=1;exitDx=0;exitDy=0;labelBackgroundColor=none;fontColor=default;strokeColor=#457B9D;" edge="1" parent="1" source="t8NzeawrsKpQ0IfHm9YZ-75" target="t8NzeawrsKpQ0IfHm9YZ-89">
          <mxGeometry relative="1" as="geometry" />
        </mxCell>
        <mxCell id="t8NzeawrsKpQ0IfHm9YZ-67" value="" style="edgeStyle=orthogonalEdgeStyle;rounded=1;orthogonalLoop=1;jettySize=auto;html=1;labelBackgroundColor=none;fontColor=default;strokeColor=#457B9D;" edge="1" parent="1" source="t8NzeawrsKpQ0IfHm9YZ-75" target="t8NzeawrsKpQ0IfHm9YZ-93">
          <mxGeometry relative="1" as="geometry" />
        </mxCell>
        <mxCell id="t8NzeawrsKpQ0IfHm9YZ-68" value="Наличbе PCI-E" style="edgeLabel;html=1;align=center;verticalAlign=middle;resizable=0;points=[];labelBackgroundColor=none;rounded=1;fontColor=#1D3557;" vertex="1" connectable="0" parent="t8NzeawrsKpQ0IfHm9YZ-67">
          <mxGeometry x="0.4657" y="-1" relative="1" as="geometry">
            <mxPoint as="offset" />
          </mxGeometry>
        </mxCell>
        <mxCell id="t8NzeawrsKpQ0IfHm9YZ-69" value="" style="edgeStyle=orthogonalEdgeStyle;rounded=1;orthogonalLoop=1;jettySize=auto;html=1;labelBackgroundColor=none;fontColor=default;strokeColor=#457B9D;" edge="1" parent="1" source="t8NzeawrsKpQ0IfHm9YZ-75" target="t8NzeawrsKpQ0IfHm9YZ-95">
          <mxGeometry relative="1" as="geometry" />
        </mxCell>
        <mxCell id="t8NzeawrsKpQ0IfHm9YZ-70" value="Наличие SATA и M2 слотов" style="edgeLabel;html=1;align=center;verticalAlign=middle;resizable=0;points=[];labelBackgroundColor=none;rounded=1;fontColor=#1D3557;" vertex="1" connectable="0" parent="t8NzeawrsKpQ0IfHm9YZ-69">
          <mxGeometry x="0.7937" y="4" relative="1" as="geometry">
            <mxPoint as="offset" />
          </mxGeometry>
        </mxCell>
        <mxCell id="t8NzeawrsKpQ0IfHm9YZ-71" style="edgeStyle=orthogonalEdgeStyle;rounded=1;orthogonalLoop=1;jettySize=auto;html=1;exitX=1;exitY=0.5;exitDx=0;exitDy=0;entryX=1;entryY=0.25;entryDx=0;entryDy=0;labelBackgroundColor=none;fontColor=default;strokeColor=#457B9D;" edge="1" parent="1" source="t8NzeawrsKpQ0IfHm9YZ-75" target="t8NzeawrsKpQ0IfHm9YZ-98">
          <mxGeometry relative="1" as="geometry">
            <Array as="points">
              <mxPoint x="2280" y="2110" />
              <mxPoint x="2280" y="2360" />
            </Array>
          </mxGeometry>
        </mxCell>
        <mxCell id="t8NzeawrsKpQ0IfHm9YZ-72" value="хватит ли мощности" style="edgeLabel;html=1;align=center;verticalAlign=middle;resizable=0;points=[];labelBackgroundColor=none;rounded=1;fontColor=#1D3557;" vertex="1" connectable="0" parent="t8NzeawrsKpQ0IfHm9YZ-71">
          <mxGeometry x="0.4753" y="3" relative="1" as="geometry">
            <mxPoint as="offset" />
          </mxGeometry>
        </mxCell>
        <mxCell id="t8NzeawrsKpQ0IfHm9YZ-73" style="edgeStyle=orthogonalEdgeStyle;rounded=1;orthogonalLoop=1;jettySize=auto;html=1;exitX=0;exitY=0.75;exitDx=0;exitDy=0;entryX=0;entryY=0.25;entryDx=0;entryDy=0;labelBackgroundColor=none;fontColor=default;strokeColor=#457B9D;" edge="1" parent="1" source="t8NzeawrsKpQ0IfHm9YZ-75" target="t8NzeawrsKpQ0IfHm9YZ-99">
          <mxGeometry relative="1" as="geometry" />
        </mxCell>
        <mxCell id="t8NzeawrsKpQ0IfHm9YZ-74" value="Вместится ли&lt;br&gt;" style="edgeLabel;html=1;align=center;verticalAlign=middle;resizable=0;points=[];labelBackgroundColor=none;rounded=1;fontColor=#1D3557;" vertex="1" connectable="0" parent="t8NzeawrsKpQ0IfHm9YZ-73">
          <mxGeometry x="0.5616" y="-1" relative="1" as="geometry">
            <mxPoint as="offset" />
          </mxGeometry>
        </mxCell>
        <mxCell id="t8NzeawrsKpQ0IfHm9YZ-75" value="Материнская плата" style="rounded=1;whiteSpace=wrap;html=1;labelBackgroundColor=none;fillColor=#A8DADC;strokeColor=#457B9D;fontColor=#1D3557;" vertex="1" parent="1">
          <mxGeometry x="2114" y="2080" width="120" height="60" as="geometry" />
        </mxCell>
        <mxCell id="t8NzeawrsKpQ0IfHm9YZ-76" value="" style="edgeStyle=orthogonalEdgeStyle;rounded=1;orthogonalLoop=1;jettySize=auto;html=1;labelBackgroundColor=none;fontColor=default;strokeColor=#457B9D;" edge="1" parent="1" source="t8NzeawrsKpQ0IfHm9YZ-82" target="t8NzeawrsKpQ0IfHm9YZ-87">
          <mxGeometry relative="1" as="geometry">
            <Array as="points">
              <mxPoint x="1920" y="2185" />
              <mxPoint x="1790" y="2185" />
            </Array>
          </mxGeometry>
        </mxCell>
        <mxCell id="t8NzeawrsKpQ0IfHm9YZ-77" value="Выбор по сокету&amp;nbsp;" style="edgeLabel;html=1;align=center;verticalAlign=middle;resizable=0;points=[];labelBackgroundColor=none;rounded=1;fontColor=#1D3557;" vertex="1" connectable="0" parent="t8NzeawrsKpQ0IfHm9YZ-76">
          <mxGeometry x="0.4255" y="-3" relative="1" as="geometry">
            <mxPoint x="43" y="-12" as="offset" />
          </mxGeometry>
        </mxCell>
        <mxCell id="t8NzeawrsKpQ0IfHm9YZ-78" style="edgeStyle=orthogonalEdgeStyle;rounded=1;orthogonalLoop=1;jettySize=auto;html=1;exitX=0.75;exitY=1;exitDx=0;exitDy=0;entryX=0;entryY=0.25;entryDx=0;entryDy=0;labelBackgroundColor=none;fontColor=default;strokeColor=#457B9D;" edge="1" parent="1" source="t8NzeawrsKpQ0IfHm9YZ-82" target="t8NzeawrsKpQ0IfHm9YZ-89">
          <mxGeometry relative="1" as="geometry">
            <Array as="points">
              <mxPoint x="1940" y="2140" />
              <mxPoint x="1940" y="2225" />
            </Array>
          </mxGeometry>
        </mxCell>
        <mxCell id="t8NzeawrsKpQ0IfHm9YZ-79" value="выбор поддерживаемой памяти" style="edgeLabel;html=1;align=center;verticalAlign=middle;resizable=0;points=[];labelBackgroundColor=none;rounded=1;fontColor=#1D3557;" vertex="1" connectable="0" parent="t8NzeawrsKpQ0IfHm9YZ-78">
          <mxGeometry x="0.1341" y="-1" relative="1" as="geometry">
            <mxPoint x="22" y="4" as="offset" />
          </mxGeometry>
        </mxCell>
        <mxCell id="t8NzeawrsKpQ0IfHm9YZ-80" style="edgeStyle=orthogonalEdgeStyle;rounded=1;orthogonalLoop=1;jettySize=auto;html=1;exitX=0.5;exitY=1;exitDx=0;exitDy=0;entryX=0;entryY=0.25;entryDx=0;entryDy=0;labelBackgroundColor=none;fontColor=default;strokeColor=#457B9D;" edge="1" parent="1" source="t8NzeawrsKpQ0IfHm9YZ-82" target="t8NzeawrsKpQ0IfHm9YZ-98">
          <mxGeometry relative="1" as="geometry" />
        </mxCell>
        <mxCell id="t8NzeawrsKpQ0IfHm9YZ-81" value="хватит ли мощности" style="edgeLabel;html=1;align=center;verticalAlign=middle;resizable=0;points=[];labelBackgroundColor=none;rounded=1;fontColor=#1D3557;" vertex="1" connectable="0" parent="t8NzeawrsKpQ0IfHm9YZ-80">
          <mxGeometry x="0.2658" relative="1" as="geometry">
            <mxPoint x="18" y="-10" as="offset" />
          </mxGeometry>
        </mxCell>
        <mxCell id="t8NzeawrsKpQ0IfHm9YZ-82" value="Процессор&amp;nbsp;" style="rounded=1;whiteSpace=wrap;html=1;labelBackgroundColor=none;fillColor=#A8DADC;strokeColor=#457B9D;fontColor=#1D3557;" vertex="1" parent="1">
          <mxGeometry x="1860" y="2080" width="120" height="60" as="geometry" />
        </mxCell>
        <mxCell id="t8NzeawrsKpQ0IfHm9YZ-83" style="edgeStyle=orthogonalEdgeStyle;rounded=1;orthogonalLoop=1;jettySize=auto;html=1;exitX=0.5;exitY=1;exitDx=0;exitDy=0;entryX=0;entryY=0.5;entryDx=0;entryDy=0;labelBackgroundColor=none;fontColor=default;strokeColor=#457B9D;" edge="1" parent="1" source="t8NzeawrsKpQ0IfHm9YZ-87" target="t8NzeawrsKpQ0IfHm9YZ-98">
          <mxGeometry relative="1" as="geometry" />
        </mxCell>
        <mxCell id="t8NzeawrsKpQ0IfHm9YZ-84" value="хватит ли мощности" style="edgeLabel;html=1;align=center;verticalAlign=middle;resizable=0;points=[];labelBackgroundColor=none;rounded=1;fontColor=#1D3557;" vertex="1" connectable="0" parent="t8NzeawrsKpQ0IfHm9YZ-83">
          <mxGeometry x="-0.2347" relative="1" as="geometry">
            <mxPoint x="15" y="-15" as="offset" />
          </mxGeometry>
        </mxCell>
        <mxCell id="t8NzeawrsKpQ0IfHm9YZ-85" style="edgeStyle=orthogonalEdgeStyle;rounded=1;orthogonalLoop=1;jettySize=auto;html=1;exitX=0.25;exitY=1;exitDx=0;exitDy=0;entryX=0;entryY=0.25;entryDx=0;entryDy=0;labelBackgroundColor=none;fontColor=default;strokeColor=#457B9D;" edge="1" parent="1" source="t8NzeawrsKpQ0IfHm9YZ-87" target="t8NzeawrsKpQ0IfHm9YZ-99">
          <mxGeometry relative="1" as="geometry" />
        </mxCell>
        <mxCell id="t8NzeawrsKpQ0IfHm9YZ-86" value="Вместится ли" style="edgeLabel;html=1;align=center;verticalAlign=middle;resizable=0;points=[];labelBackgroundColor=none;rounded=1;fontColor=#1D3557;" vertex="1" connectable="0" parent="t8NzeawrsKpQ0IfHm9YZ-85">
          <mxGeometry x="0.5281" y="-3" relative="1" as="geometry">
            <mxPoint x="-35" y="12" as="offset" />
          </mxGeometry>
        </mxCell>
        <mxCell id="t8NzeawrsKpQ0IfHm9YZ-87" value="Кулер" style="whiteSpace=wrap;html=1;rounded=1;labelBackgroundColor=none;fillColor=#A8DADC;strokeColor=#457B9D;fontColor=#1D3557;" vertex="1" parent="1">
          <mxGeometry x="1770" y="2230" width="120" height="60" as="geometry" />
        </mxCell>
        <mxCell id="t8NzeawrsKpQ0IfHm9YZ-88" style="edgeStyle=orthogonalEdgeStyle;rounded=1;orthogonalLoop=1;jettySize=auto;html=1;exitX=0.5;exitY=1;exitDx=0;exitDy=0;entryX=0.5;entryY=0;entryDx=0;entryDy=0;labelBackgroundColor=none;fontColor=default;strokeColor=#457B9D;" edge="1" parent="1" source="t8NzeawrsKpQ0IfHm9YZ-89" target="t8NzeawrsKpQ0IfHm9YZ-98">
          <mxGeometry relative="1" as="geometry" />
        </mxCell>
        <mxCell id="t8NzeawrsKpQ0IfHm9YZ-89" value="Оперативная память&lt;br&gt;" style="whiteSpace=wrap;html=1;rounded=1;labelBackgroundColor=none;fillColor=#A8DADC;strokeColor=#457B9D;fontColor=#1D3557;" vertex="1" parent="1">
          <mxGeometry x="2114" y="2210" width="120" height="60" as="geometry" />
        </mxCell>
        <mxCell id="t8NzeawrsKpQ0IfHm9YZ-90" value="&#xa;&lt;span style=&quot;color: rgb(0, 0, 0); font-family: Helvetica; font-size: 11px; font-style: normal; font-variant-ligatures: normal; font-variant-caps: normal; font-weight: 400; letter-spacing: normal; orphans: 2; text-align: center; text-indent: 0px; text-transform: none; widows: 2; word-spacing: 0px; -webkit-text-stroke-width: 0px; background-color: rgb(255, 255, 255); text-decoration-thickness: initial; text-decoration-style: initial; text-decoration-color: initial; float: none; display: inline !important;&quot;&gt;хватит ли мощности&lt;/span&gt;&#xa;&#xa;" style="edgeStyle=orthogonalEdgeStyle;rounded=1;orthogonalLoop=1;jettySize=auto;html=1;exitX=0.5;exitY=1;exitDx=0;exitDy=0;entryX=1;entryY=0.5;entryDx=0;entryDy=0;labelBackgroundColor=none;fontColor=default;strokeColor=#457B9D;" edge="1" parent="1" source="t8NzeawrsKpQ0IfHm9YZ-93" target="t8NzeawrsKpQ0IfHm9YZ-98">
          <mxGeometry relative="1" as="geometry" />
        </mxCell>
        <mxCell id="t8NzeawrsKpQ0IfHm9YZ-91" style="edgeStyle=orthogonalEdgeStyle;rounded=1;orthogonalLoop=1;jettySize=auto;html=1;exitX=0.25;exitY=1;exitDx=0;exitDy=0;entryX=1.008;entryY=0.4;entryDx=0;entryDy=0;entryPerimeter=0;labelBackgroundColor=none;fontColor=default;strokeColor=#457B9D;" edge="1" parent="1" source="t8NzeawrsKpQ0IfHm9YZ-93" target="t8NzeawrsKpQ0IfHm9YZ-99">
          <mxGeometry relative="1" as="geometry" />
        </mxCell>
        <mxCell id="t8NzeawrsKpQ0IfHm9YZ-92" value="Вместится ли" style="edgeLabel;html=1;align=center;verticalAlign=middle;resizable=0;points=[];labelBackgroundColor=none;rounded=1;fontColor=#1D3557;" vertex="1" connectable="0" parent="t8NzeawrsKpQ0IfHm9YZ-91">
          <mxGeometry x="0.8143" y="1" relative="1" as="geometry">
            <mxPoint x="44" y="5" as="offset" />
          </mxGeometry>
        </mxCell>
        <mxCell id="t8NzeawrsKpQ0IfHm9YZ-93" value="Видеокарта" style="whiteSpace=wrap;html=1;rounded=1;labelBackgroundColor=none;fillColor=#A8DADC;strokeColor=#457B9D;fontColor=#1D3557;" vertex="1" parent="1">
          <mxGeometry x="2320" y="2210" width="120" height="60" as="geometry" />
        </mxCell>
        <mxCell id="t8NzeawrsKpQ0IfHm9YZ-94" value="&#xa;&lt;span style=&quot;color: rgb(0, 0, 0); font-family: Helvetica; font-size: 11px; font-style: normal; font-variant-ligatures: normal; font-variant-caps: normal; font-weight: 400; letter-spacing: normal; orphans: 2; text-align: center; text-indent: 0px; text-transform: none; widows: 2; word-spacing: 0px; -webkit-text-stroke-width: 0px; background-color: rgb(255, 255, 255); text-decoration-thickness: initial; text-decoration-style: initial; text-decoration-color: initial; float: none; display: inline !important;&quot;&gt;хватит ли мощности&lt;/span&gt;&#xa;&#xa;" style="edgeStyle=orthogonalEdgeStyle;rounded=1;orthogonalLoop=1;jettySize=auto;html=1;exitX=1;exitY=0.5;exitDx=0;exitDy=0;entryX=1;entryY=0.75;entryDx=0;entryDy=0;labelBackgroundColor=none;fontColor=default;strokeColor=#457B9D;" edge="1" parent="1" source="t8NzeawrsKpQ0IfHm9YZ-95" target="t8NzeawrsKpQ0IfHm9YZ-98">
          <mxGeometry relative="1" as="geometry" />
        </mxCell>
        <mxCell id="t8NzeawrsKpQ0IfHm9YZ-95" value="Накопитель" style="whiteSpace=wrap;html=1;rounded=1;labelBackgroundColor=none;fillColor=#A8DADC;strokeColor=#457B9D;fontColor=#1D3557;" vertex="1" parent="1">
          <mxGeometry x="2320" y="1980" width="120" height="60" as="geometry" />
        </mxCell>
        <mxCell id="t8NzeawrsKpQ0IfHm9YZ-96" style="edgeStyle=orthogonalEdgeStyle;rounded=1;orthogonalLoop=1;jettySize=auto;html=1;exitX=0.5;exitY=1;exitDx=0;exitDy=0;entryX=0.5;entryY=0;entryDx=0;entryDy=0;labelBackgroundColor=none;fontColor=default;strokeColor=#457B9D;" edge="1" parent="1" source="t8NzeawrsKpQ0IfHm9YZ-98" target="t8NzeawrsKpQ0IfHm9YZ-99">
          <mxGeometry relative="1" as="geometry" />
        </mxCell>
        <mxCell id="t8NzeawrsKpQ0IfHm9YZ-97" value="Вместится ли&lt;br&gt;" style="edgeLabel;html=1;align=center;verticalAlign=middle;resizable=0;points=[];labelBackgroundColor=none;rounded=1;fontColor=#1D3557;" vertex="1" connectable="0" parent="t8NzeawrsKpQ0IfHm9YZ-96">
          <mxGeometry x="0.4352" y="1" relative="1" as="geometry">
            <mxPoint as="offset" />
          </mxGeometry>
        </mxCell>
        <mxCell id="t8NzeawrsKpQ0IfHm9YZ-98" value="Блок Питания" style="rounded=1;whiteSpace=wrap;html=1;labelBackgroundColor=none;fillColor=#A8DADC;strokeColor=#457B9D;fontColor=#1D3557;" vertex="1" parent="1">
          <mxGeometry x="2114" y="2345" width="120" height="60" as="geometry" />
        </mxCell>
        <mxCell id="t8NzeawrsKpQ0IfHm9YZ-99" value="Системный блок" style="rounded=1;whiteSpace=wrap;html=1;labelBackgroundColor=none;fillColor=#A8DADC;strokeColor=#457B9D;fontColor=#1D3557;" vertex="1" parent="1">
          <mxGeometry x="2060" y="2460" width="120" height="60" as="geometry" />
        </mxCell>
        <mxCell id="t8NzeawrsKpQ0IfHm9YZ-100" value="&lt;font size=&quot;3&quot;&gt;Rules&lt;/font&gt;" style="rounded=0;whiteSpace=wrap;html=1;" vertex="1" parent="1">
          <mxGeometry x="1730" y="1910" width="60" height="20" as="geometry" />
        </mxCell>
        <mxCell id="t8NzeawrsKpQ0IfHm9YZ-101" value="Device info" style="rounded=0;whiteSpace=wrap;html=1;" vertex="1" parent="1">
          <mxGeometry x="1580" y="2090" width="70" height="20" as="geometry" />
        </mxCell>
        <mxCell id="t8NzeawrsKpQ0IfHm9YZ-102" value="Rule result" style="rounded=0;whiteSpace=wrap;html=1;" vertex="1" parent="1">
          <mxGeometry x="2790" y="1990" width="60" height="20" as="geometry" />
        </mxCell>
        <mxCell id="t8NzeawrsKpQ0IfHm9YZ-103" style="edgeStyle=orthogonalEdgeStyle;rounded=0;orthogonalLoop=1;jettySize=auto;html=1;exitX=0.5;exitY=1;exitDx=0;exitDy=0;entryX=1;entryY=0.5;entryDx=0;entryDy=0;" edge="1" parent="1" source="t8NzeawrsKpQ0IfHm9YZ-105" target="t8NzeawrsKpQ0IfHm9YZ-16">
          <mxGeometry relative="1" as="geometry" />
        </mxCell>
        <mxCell id="t8NzeawrsKpQ0IfHm9YZ-104" value="Система подбирает" style="edgeLabel;html=1;align=center;verticalAlign=middle;resizable=0;points=[];" vertex="1" connectable="0" parent="t8NzeawrsKpQ0IfHm9YZ-103">
          <mxGeometry x="-0.8143" y="-2" relative="1" as="geometry">
            <mxPoint as="offset" />
          </mxGeometry>
        </mxCell>
        <mxCell id="t8NzeawrsKpQ0IfHm9YZ-105" value="" style="rounded=0;whiteSpace=wrap;html=1;" vertex="1" parent="1">
          <mxGeometry x="1240" y="1100" width="705" height="500" as="geometry" />
        </mxCell>
        <mxCell id="t8NzeawrsKpQ0IfHm9YZ-106" value="Test" style="rounded=0;whiteSpace=wrap;html=1;" vertex="1" parent="1">
          <mxGeometry x="1825" y="1100" width="120" height="40" as="geometry" />
        </mxCell>
        <mxCell id="t8NzeawrsKpQ0IfHm9YZ-107" value="&lt;ol&gt;&lt;li&gt;В какой сфере используется&lt;/li&gt;&lt;li&gt;Для каких задач&lt;/li&gt;&lt;li&gt;На какой срок&lt;/li&gt;&lt;li&gt;Бюджет&amp;nbsp;&lt;br&gt;&lt;br&gt;И т.д&lt;/li&gt;&lt;/ol&gt;" style="rounded=1;whiteSpace=wrap;html=1;labelBackgroundColor=none;fillColor=#A8DADC;strokeColor=#457B9D;fontColor=#1D3557;align=left;" vertex="1" parent="1">
          <mxGeometry x="1310" y="1170" width="160" height="110" as="geometry" />
        </mxCell>
        <mxCell id="t8NzeawrsKpQ0IfHm9YZ-108" value="Расш. опрос (если выбран 4)" style="rounded=0;whiteSpace=wrap;html=1;" vertex="1" parent="1">
          <mxGeometry x="1320" y="1140" width="140" height="30" as="geometry" />
        </mxCell>
        <mxCell id="t8NzeawrsKpQ0IfHm9YZ-109" value="&lt;ol&gt;&lt;li&gt;Какой производитель вам по душе&lt;/li&gt;&lt;li&gt;Каких производителей исключить из сборки&lt;/li&gt;&lt;/ol&gt;" style="rounded=1;whiteSpace=wrap;html=1;labelBackgroundColor=none;fillColor=#A8DADC;strokeColor=#457B9D;fontColor=#1D3557;align=left;" vertex="1" parent="1">
          <mxGeometry x="1590" y="1170" width="160" height="110" as="geometry" />
        </mxCell>
        <mxCell id="t8NzeawrsKpQ0IfHm9YZ-110" value="Необязательные вопросы" style="rounded=0;whiteSpace=wrap;html=1;" vertex="1" parent="1">
          <mxGeometry x="1610" y="1140" width="120" height="30" as="geometry" />
        </mxCell>
        <mxCell id="t8NzeawrsKpQ0IfHm9YZ-111" style="edgeStyle=orthogonalEdgeStyle;rounded=0;orthogonalLoop=1;jettySize=auto;html=1;exitX=1;exitY=0.5;exitDx=0;exitDy=0;entryX=1;entryY=0.5;entryDx=0;entryDy=0;" edge="1" parent="1" source="t8NzeawrsKpQ0IfHm9YZ-112" target="t8NzeawrsKpQ0IfHm9YZ-108">
          <mxGeometry relative="1" as="geometry" />
        </mxCell>
        <mxCell id="t8NzeawrsKpQ0IfHm9YZ-112" value="&lt;ol&gt;&lt;li&gt;Игровой&lt;/li&gt;&lt;li&gt;Офисный&lt;/li&gt;&lt;li&gt;Серверный&lt;/li&gt;&lt;li&gt;Рабочий&lt;/li&gt;&lt;/ol&gt;" style="rounded=1;whiteSpace=wrap;html=1;labelBackgroundColor=none;fillColor=#A8DADC;strokeColor=#457B9D;fontColor=#1D3557;align=left;" vertex="1" parent="1">
          <mxGeometry x="1380" y="1480" width="160" height="110" as="geometry" />
        </mxCell>
        <mxCell id="t8NzeawrsKpQ0IfHm9YZ-113" value="Простой опрос" style="rounded=0;whiteSpace=wrap;html=1;" vertex="1" parent="1">
          <mxGeometry x="1400" y="1460" width="120" height="20" as="geometry" />
        </mxCell>
        <mxCell id="t8NzeawrsKpQ0IfHm9YZ-114" value="Задаются ограничения путем опроса" style="rounded=0;whiteSpace=wrap;html=1;" vertex="1" parent="1">
          <mxGeometry x="1510" y="1080" width="210" height="20" as="geometry" />
        </mxCell>
        <mxCell id="t8NzeawrsKpQ0IfHm9YZ-115" value="&lt;span style=&quot;font-size: 36px;&quot;&gt;PC&lt;/span&gt;" style="rounded=0;whiteSpace=wrap;html=1;" vertex="1" parent="1">
          <mxGeometry x="3550" y="270" width="190" height="60" as="geometry" />
        </mxCell>
        <mxCell id="t8NzeawrsKpQ0IfHm9YZ-116" value="&lt;font style=&quot;font-size: 18px;&quot;&gt;База данных&lt;/font&gt;" style="rounded=0;whiteSpace=wrap;html=1;" vertex="1" parent="1">
          <mxGeometry x="770" y="1700" width="120" height="30" as="geometry" />
        </mxCell>
        <mxCell id="t8NzeawrsKpQ0IfHm9YZ-117" style="edgeStyle=orthogonalEdgeStyle;rounded=0;orthogonalLoop=1;jettySize=auto;html=1;exitX=0;exitY=0.5;exitDx=0;exitDy=0;entryX=1;entryY=0.5;entryDx=0;entryDy=0;" edge="1" parent="1" source="t8NzeawrsKpQ0IfHm9YZ-119" target="t8NzeawrsKpQ0IfHm9YZ-105">
          <mxGeometry relative="1" as="geometry" />
        </mxCell>
        <mxCell id="t8NzeawrsKpQ0IfHm9YZ-118" style="edgeStyle=orthogonalEdgeStyle;rounded=0;orthogonalLoop=1;jettySize=auto;html=1;exitX=0.5;exitY=0;exitDx=0;exitDy=0;entryX=1;entryY=0.5;entryDx=0;entryDy=0;" edge="1" parent="1" source="t8NzeawrsKpQ0IfHm9YZ-119" target="t8NzeawrsKpQ0IfHm9YZ-40">
          <mxGeometry relative="1" as="geometry" />
        </mxCell>
        <mxCell id="t8NzeawrsKpQ0IfHm9YZ-119" value="" style="rounded=0;whiteSpace=wrap;html=1;" vertex="1" parent="1">
          <mxGeometry x="2630" y="1110" width="560" height="260" as="geometry" />
        </mxCell>
        <mxCell id="t8NzeawrsKpQ0IfHm9YZ-120" value="Причины несовместимости" style="rounded=0;whiteSpace=wrap;html=1;" vertex="1" parent="1">
          <mxGeometry x="2630" y="1110" width="180" height="30" as="geometry" />
        </mxCell>
        <mxCell id="t8NzeawrsKpQ0IfHm9YZ-121" value="Ограничение программы" style="rounded=0;whiteSpace=wrap;html=1;" vertex="1" parent="1">
          <mxGeometry x="3020" y="1200" width="120" height="60" as="geometry" />
        </mxCell>
        <mxCell id="t8NzeawrsKpQ0IfHm9YZ-122" value="Элемент 1 несовместим с элементом 2&amp;nbsp;&lt;br&gt;и тд" style="rounded=0;whiteSpace=wrap;html=1;" vertex="1" parent="1">
          <mxGeometry x="2700" y="1200" width="120" height="60" as="geometry" />
        </mxCell>
        <mxCell id="t8NzeawrsKpQ0IfHm9YZ-123" value="Баги, неисправности" style="rounded=0;whiteSpace=wrap;html=1;" vertex="1" parent="1">
          <mxGeometry x="2860" y="1200" width="120" height="60" as="geometry" />
        </mxCell>
        <mxCell id="t8NzeawrsKpQ0IfHm9YZ-124" value="" style="rounded=0;whiteSpace=wrap;html=1;" vertex="1" parent="1">
          <mxGeometry x="730" y="290" width="920" height="530" as="geometry" />
        </mxCell>
        <mxCell id="t8NzeawrsKpQ0IfHm9YZ-125" value="&lt;div&gt;Информация об эксплуатации приложения&lt;br&gt;&lt;/div&gt;" style="rounded=0;whiteSpace=wrap;html=1;align=center;verticalAlign=bottom;" vertex="1" parent="1">
          <mxGeometry x="770" y="580" width="160" height="80" as="geometry" />
        </mxCell>
        <mxCell id="t8NzeawrsKpQ0IfHm9YZ-126" value="" style="rounded=0;whiteSpace=wrap;html=1;" vertex="1" parent="1">
          <mxGeometry x="770" y="430" width="160" height="120" as="geometry" />
        </mxCell>
        <mxCell id="t8NzeawrsKpQ0IfHm9YZ-127" value="" style="rounded=0;whiteSpace=wrap;html=1;" vertex="1" parent="1">
          <mxGeometry x="970" y="370" width="640" height="430" as="geometry" />
        </mxCell>
        <mxCell id="t8NzeawrsKpQ0IfHm9YZ-128" value="Информация" style="html=1;whiteSpace=wrap;" vertex="1" parent="1">
          <mxGeometry x="730" y="290" width="920" height="40" as="geometry" />
        </mxCell>
        <mxCell id="t8NzeawrsKpQ0IfHm9YZ-129" value="О приложении" style="html=1;whiteSpace=wrap;" vertex="1" parent="1">
          <mxGeometry x="770" y="430" width="160" height="40" as="geometry" />
        </mxCell>
        <mxCell id="t8NzeawrsKpQ0IfHm9YZ-130" value="О разработчике" style="html=1;whiteSpace=wrap;" vertex="1" parent="1">
          <mxGeometry x="970" y="370" width="640" height="50" as="geometry" />
        </mxCell>
        <mxCell id="t8NzeawrsKpQ0IfHm9YZ-131" value="Инструкция" style="html=1;whiteSpace=wrap;" vertex="1" parent="1">
          <mxGeometry x="770" y="580" width="160" height="40" as="geometry" />
        </mxCell>
        <mxCell id="t8NzeawrsKpQ0IfHm9YZ-132" value="" style="rounded=0;whiteSpace=wrap;html=1;" vertex="1" parent="1">
          <mxGeometry x="995" y="430" width="325" height="340" as="geometry" />
        </mxCell>
        <mxCell id="t8NzeawrsKpQ0IfHm9YZ-133" value="Пожертвование" style="rounded=0;whiteSpace=wrap;html=1;" vertex="1" parent="1">
          <mxGeometry x="995" y="430" width="325" height="30" as="geometry" />
        </mxCell>
        <mxCell id="t8NzeawrsKpQ0IfHm9YZ-134" value="Платеж" style="swimlane;fontStyle=0;childLayout=stackLayout;horizontal=1;startSize=30;horizontalStack=0;resizeParent=1;resizeParentMax=0;resizeLast=0;collapsible=1;marginBottom=0;whiteSpace=wrap;html=1;" vertex="1" parent="1">
          <mxGeometry x="1004" y="475" width="96" height="150" as="geometry">
            <mxRectangle x="274" y="705" width="120" height="30" as="alternateBounds" />
          </mxGeometry>
        </mxCell>
        <mxCell id="t8NzeawrsKpQ0IfHm9YZ-135" value="ФИО" style="text;strokeColor=none;fillColor=none;align=left;verticalAlign=middle;spacingLeft=4;spacingRight=4;overflow=hidden;points=[[0,0.5],[1,0.5]];portConstraint=eastwest;rotatable=0;whiteSpace=wrap;html=1;" vertex="1" parent="t8NzeawrsKpQ0IfHm9YZ-134">
          <mxGeometry y="30" width="96" height="30" as="geometry" />
        </mxCell>
        <mxCell id="t8NzeawrsKpQ0IfHm9YZ-136" style="edgeStyle=orthogonalEdgeStyle;rounded=0;orthogonalLoop=1;jettySize=auto;html=1;exitX=1;exitY=0.5;exitDx=0;exitDy=0;entryX=1;entryY=0.5;entryDx=0;entryDy=0;" edge="1" parent="t8NzeawrsKpQ0IfHm9YZ-134" source="t8NzeawrsKpQ0IfHm9YZ-137" target="t8NzeawrsKpQ0IfHm9YZ-134">
          <mxGeometry relative="1" as="geometry" />
        </mxCell>
        <mxCell id="t8NzeawrsKpQ0IfHm9YZ-137" value="Сумма" style="text;strokeColor=none;fillColor=none;align=left;verticalAlign=middle;spacingLeft=4;spacingRight=4;overflow=hidden;points=[[0,0.5],[1,0.5]];portConstraint=eastwest;rotatable=0;whiteSpace=wrap;html=1;" vertex="1" parent="t8NzeawrsKpQ0IfHm9YZ-134">
          <mxGeometry y="60" width="96" height="30" as="geometry" />
        </mxCell>
        <mxCell id="t8NzeawrsKpQ0IfHm9YZ-138" value="Номер карты" style="text;strokeColor=none;fillColor=none;align=left;verticalAlign=middle;spacingLeft=4;spacingRight=4;overflow=hidden;points=[[0,0.5],[1,0.5]];portConstraint=eastwest;rotatable=0;whiteSpace=wrap;html=1;" vertex="1" parent="t8NzeawrsKpQ0IfHm9YZ-134">
          <mxGeometry y="90" width="96" height="30" as="geometry" />
        </mxCell>
        <mxCell id="t8NzeawrsKpQ0IfHm9YZ-139" value="Комментарий" style="text;strokeColor=none;fillColor=none;align=left;verticalAlign=middle;spacingLeft=4;spacingRight=4;overflow=hidden;points=[[0,0.5],[1,0.5]];portConstraint=eastwest;rotatable=0;whiteSpace=wrap;html=1;" vertex="1" parent="t8NzeawrsKpQ0IfHm9YZ-134">
          <mxGeometry y="120" width="96" height="30" as="geometry" />
        </mxCell>
        <mxCell id="t8NzeawrsKpQ0IfHm9YZ-140" style="edgeStyle=orthogonalEdgeStyle;rounded=0;orthogonalLoop=1;jettySize=auto;html=1;exitX=0.5;exitY=1;exitDx=0;exitDy=0;entryX=0.5;entryY=0;entryDx=0;entryDy=0;" edge="1" parent="1" source="t8NzeawrsKpQ0IfHm9YZ-141" target="t8NzeawrsKpQ0IfHm9YZ-148">
          <mxGeometry relative="1" as="geometry" />
        </mxCell>
        <mxCell id="t8NzeawrsKpQ0IfHm9YZ-141" value="Отправлен" style="rounded=0;whiteSpace=wrap;html=1;" vertex="1" parent="1">
          <mxGeometry x="1170" y="645" width="120" height="40" as="geometry" />
        </mxCell>
        <mxCell id="t8NzeawrsKpQ0IfHm9YZ-142" style="edgeStyle=orthogonalEdgeStyle;rounded=0;orthogonalLoop=1;jettySize=auto;html=1;exitX=0.5;exitY=0;exitDx=0;exitDy=0;entryX=0.5;entryY=1;entryDx=0;entryDy=0;" edge="1" parent="1" source="t8NzeawrsKpQ0IfHm9YZ-143" target="t8NzeawrsKpQ0IfHm9YZ-147">
          <mxGeometry relative="1" as="geometry" />
        </mxCell>
        <mxCell id="t8NzeawrsKpQ0IfHm9YZ-143" value="Не отправлен" style="rounded=0;whiteSpace=wrap;html=1;" vertex="1" parent="1">
          <mxGeometry x="1170" y="585" width="120" height="40" as="geometry" />
        </mxCell>
        <mxCell id="t8NzeawrsKpQ0IfHm9YZ-144" style="edgeStyle=orthogonalEdgeStyle;rounded=0;orthogonalLoop=1;jettySize=auto;html=1;exitX=1;exitY=0.5;exitDx=0;exitDy=0;entryX=0;entryY=0.5;entryDx=0;entryDy=0;" edge="1" parent="1" source="t8NzeawrsKpQ0IfHm9YZ-137" target="t8NzeawrsKpQ0IfHm9YZ-141">
          <mxGeometry relative="1" as="geometry">
            <Array as="points">
              <mxPoint x="1120" y="550" />
              <mxPoint x="1120" y="665" />
            </Array>
          </mxGeometry>
        </mxCell>
        <mxCell id="t8NzeawrsKpQ0IfHm9YZ-145" style="edgeStyle=orthogonalEdgeStyle;rounded=0;orthogonalLoop=1;jettySize=auto;html=1;exitX=1;exitY=0.5;exitDx=0;exitDy=0;entryX=0.25;entryY=0;entryDx=0;entryDy=0;" edge="1" parent="1" source="t8NzeawrsKpQ0IfHm9YZ-134" target="t8NzeawrsKpQ0IfHm9YZ-143">
          <mxGeometry relative="1" as="geometry" />
        </mxCell>
        <mxCell id="t8NzeawrsKpQ0IfHm9YZ-146" style="edgeStyle=orthogonalEdgeStyle;rounded=0;orthogonalLoop=1;jettySize=auto;html=1;exitX=0;exitY=0.5;exitDx=0;exitDy=0;entryX=0.992;entryY=0.111;entryDx=0;entryDy=0;entryPerimeter=0;" edge="1" parent="1" source="t8NzeawrsKpQ0IfHm9YZ-147" target="t8NzeawrsKpQ0IfHm9YZ-134">
          <mxGeometry relative="1" as="geometry">
            <Array as="points">
              <mxPoint x="1170" y="492" />
            </Array>
          </mxGeometry>
        </mxCell>
        <mxCell id="t8NzeawrsKpQ0IfHm9YZ-147" value="Ошибка" style="rounded=0;whiteSpace=wrap;html=1;" vertex="1" parent="1">
          <mxGeometry x="1170" y="475" width="120" height="30" as="geometry" />
        </mxCell>
        <mxCell id="t8NzeawrsKpQ0IfHm9YZ-148" value="Уведомление об успешном платеже" style="rounded=0;whiteSpace=wrap;html=1;" vertex="1" parent="1">
          <mxGeometry x="1170" y="710" width="120" height="40" as="geometry" />
        </mxCell>
        <mxCell id="t8NzeawrsKpQ0IfHm9YZ-149" value="&lt;ol&gt;&lt;li&gt;Имя&lt;/li&gt;&lt;li&gt;Информация краткая&lt;/li&gt;&lt;li&gt;Почта для обратной связи&lt;/li&gt;&lt;li&gt;Пожертвование&lt;br&gt;&lt;/li&gt;&lt;/ol&gt;" style="rounded=0;whiteSpace=wrap;html=1;verticalAlign=bottom;" vertex="1" parent="1">
          <mxGeometry x="1420" y="530" width="150" height="150" as="geometry" />
        </mxCell>
        <mxCell id="t8NzeawrsKpQ0IfHm9YZ-150" value="О разработчике_инфо" style="rounded=0;whiteSpace=wrap;html=1;" vertex="1" parent="1">
          <mxGeometry x="1420" y="530" width="150" height="40" as="geometry" />
        </mxCell>
        <mxCell id="t8NzeawrsKpQ0IfHm9YZ-151" value="Краткая информация о приложении" style="text;html=1;strokeColor=none;fillColor=none;align=center;verticalAlign=middle;whiteSpace=wrap;rounded=0;" vertex="1" parent="1">
          <mxGeometry x="770" y="470" width="160" height="80" as="geometry" />
        </mxCell>
        <mxCell id="t8NzeawrsKpQ0IfHm9YZ-152" style="edgeStyle=orthogonalEdgeStyle;rounded=0;orthogonalLoop=1;jettySize=auto;html=1;exitX=0;exitY=0.25;exitDx=0;exitDy=0;entryX=1.003;entryY=0.403;entryDx=0;entryDy=0;entryPerimeter=0;" edge="1" parent="1" source="t8NzeawrsKpQ0IfHm9YZ-149" target="t8NzeawrsKpQ0IfHm9YZ-132">
          <mxGeometry relative="1" as="geometry" />
        </mxCell>
        <mxCell id="t8NzeawrsKpQ0IfHm9YZ-153" value="" style="rounded=0;whiteSpace=wrap;html=1;" vertex="1" parent="1">
          <mxGeometry x="3270" y="2080" width="150" height="300" as="geometry" />
        </mxCell>
        <mxCell id="t8NzeawrsKpQ0IfHm9YZ-154" value="Сохранить как" style="html=1;whiteSpace=wrap;" vertex="1" parent="1">
          <mxGeometry x="3270" y="2080" width="150" height="30" as="geometry" />
        </mxCell>
        <mxCell id="t8NzeawrsKpQ0IfHm9YZ-155" value="Excel" style="html=1;whiteSpace=wrap;" vertex="1" parent="1">
          <mxGeometry x="3290" y="2130" width="120" height="40" as="geometry" />
        </mxCell>
        <mxCell id="t8NzeawrsKpQ0IfHm9YZ-156" value="PDF" style="rounded=0;whiteSpace=wrap;html=1;" vertex="1" parent="1">
          <mxGeometry x="3290" y="2210" width="120" height="50" as="geometry" />
        </mxCell>
        <mxCell id="t8NzeawrsKpQ0IfHm9YZ-157" value="Добавить в коллекцию" style="rounded=0;whiteSpace=wrap;html=1;" vertex="1" parent="1">
          <mxGeometry x="3290" y="2295" width="120" height="50" as="geometry" />
        </mxCell>
        <mxCell id="t8NzeawrsKpQ0IfHm9YZ-158" style="edgeStyle=orthogonalEdgeStyle;rounded=0;orthogonalLoop=1;jettySize=auto;html=1;exitX=1;exitY=0.5;exitDx=0;exitDy=0;entryX=1;entryY=0.5;entryDx=0;entryDy=0;" edge="1" parent="1" source="t8NzeawrsKpQ0IfHm9YZ-159" target="t8NzeawrsKpQ0IfHm9YZ-157">
          <mxGeometry relative="1" as="geometry" />
        </mxCell>
        <mxCell id="t8NzeawrsKpQ0IfHm9YZ-159" value="" style="rounded=0;whiteSpace=wrap;html=1;" vertex="1" parent="1">
          <mxGeometry x="2510" y="402.5" width="520" height="277.5" as="geometry" />
        </mxCell>
        <mxCell id="t8NzeawrsKpQ0IfHm9YZ-160" value="Обновить" style="rounded=0;whiteSpace=wrap;html=1;" vertex="1" parent="1">
          <mxGeometry x="2540" y="475" width="120" height="60" as="geometry" />
        </mxCell>
        <mxCell id="t8NzeawrsKpQ0IfHm9YZ-161" style="edgeStyle=orthogonalEdgeStyle;rounded=0;orthogonalLoop=1;jettySize=auto;html=1;exitX=0;exitY=0.5;exitDx=0;exitDy=0;entryX=1;entryY=0.5;entryDx=0;entryDy=0;" edge="1" parent="1" source="t8NzeawrsKpQ0IfHm9YZ-162" target="t8NzeawrsKpQ0IfHm9YZ-40">
          <mxGeometry relative="1" as="geometry" />
        </mxCell>
        <mxCell id="t8NzeawrsKpQ0IfHm9YZ-162" value="Редактировать" style="rounded=0;whiteSpace=wrap;html=1;" vertex="1" parent="1">
          <mxGeometry x="2540" y="590" width="120" height="60" as="geometry" />
        </mxCell>
        <mxCell id="t8NzeawrsKpQ0IfHm9YZ-163" value="Удалить" style="rounded=0;whiteSpace=wrap;html=1;" vertex="1" parent="1">
          <mxGeometry x="2780" y="520" width="120" height="60" as="geometry" />
        </mxCell>
        <mxCell id="t8NzeawrsKpQ0IfHm9YZ-164" value="Коллекция сборок" style="rounded=0;whiteSpace=wrap;html=1;" vertex="1" parent="1">
          <mxGeometry x="2510" y="402.5" width="120" height="40" as="geometry" />
        </mxCell>
      </root>
    </mxGraphModel>
  </diagram>
</mxfile>
